<svg class="main-svg" xmlns="http://www.w3.org/2000/svg" xmlns:xlink="http://www.w3.org/1999/xlink" width="700" height="500" style="" viewBox="0 0 700 500"><rect x="0" y="0" width="700" height="500" style="fill: rgb(255, 255, 255); fill-opacity: 1;"/><defs id="defs-14bcb3"><g class="clips"><clipPath id="clip14bcb3xyplot" class="plotclip"><rect width="500" height="320"/></clipPath><clipPath class="axesclip" id="clip14bcb3x"><rect x="80" y="0" width="500" height="500"/></clipPath><clipPath class="axesclip" id="clip14bcb3y"><rect x="0" y="100" width="700" height="320"/></clipPath><clipPath class="axesclip" id="clip14bcb3xy"><rect x="80" y="100" width="500" height="320"/></clipPath></g><g class="gradients"/></defs><g class="bglayer"><rect class="bg" x="80" y="100" width="500" height="320" style="fill: rgb(229, 236, 246); fill-opacity: 1; stroke-width: 0;"/></g><g class="layer-below"><g class="imagelayer"/><g class="shapelayer"/></g><g class="cartesianlayer"><g class="subplot xy"><g class="layer-subplot"><g class="shapelayer"/><g class="imagelayer"/></g><g class="gridlayer"><g class="x"><path class="xgrid crisp" transform="translate(139.69,0)" d="M0,100v320" style="stroke: rgb(255, 255, 255); stroke-opacity: 1; stroke-width: 1px;"/><path class="xgrid crisp" transform="translate(209.58,0)" d="M0,100v320" style="stroke: rgb(255, 255, 255); stroke-opacity: 1; stroke-width: 1px;"/><path class="xgrid crisp" transform="translate(279.48,0)" d="M0,100v320" style="stroke: rgb(255, 255, 255); stroke-opacity: 1; stroke-width: 1px;"/><path class="xgrid crisp" transform="translate(349.37,0)" d="M0,100v320" style="stroke: rgb(255, 255, 255); stroke-opacity: 1; stroke-width: 1px;"/><path class="xgrid crisp" transform="translate(419.26,0)" d="M0,100v320" style="stroke: rgb(255, 255, 255); stroke-opacity: 1; stroke-width: 1px;"/><path class="xgrid crisp" transform="translate(489.15,0)" d="M0,100v320" style="stroke: rgb(255, 255, 255); stroke-opacity: 1; stroke-width: 1px;"/><path class="xgrid crisp" transform="translate(559.04,0)" d="M0,100v320" style="stroke: rgb(255, 255, 255); stroke-opacity: 1; stroke-width: 1px;"/></g><g class="y"><path class="ygrid crisp" transform="translate(0,346.4)" d="M80,0h500" style="stroke: rgb(255, 255, 255); stroke-opacity: 1; stroke-width: 1px;"/><path class="ygrid crisp" transform="translate(0,288.8)" d="M80,0h500" style="stroke: rgb(255, 255, 255); stroke-opacity: 1; stroke-width: 1px;"/><path class="ygrid crisp" transform="translate(0,231.2)" d="M80,0h500" style="stroke: rgb(255, 255, 255); stroke-opacity: 1; stroke-width: 1px;"/><path class="ygrid crisp" transform="translate(0,173.6)" d="M80,0h500" style="stroke: rgb(255, 255, 255); stroke-opacity: 1; stroke-width: 1px;"/><path class="ygrid crisp" transform="translate(0,116)" d="M80,0h500" style="stroke: rgb(255, 255, 255); stroke-opacity: 1; stroke-width: 1px;"/></g></g><g class="zerolinelayer"><path class="yzl zl crisp" transform="translate(0,404)" d="M80,0h500" style="stroke: rgb(255, 255, 255); stroke-opacity: 1; stroke-width: 2px;"/></g><path class="xlines-below"/><path class="ylines-below"/><g class="overlines-below"/><g class="xaxislayer-below"/><g class="yaxislayer-below"/><g class="overaxes-below"/><g class="plot" transform="translate(80,100)" clip-path="url('#clip14bcb3xyplot')"><g class="scatterlayer mlayer"><g class="trace scatter tracee71546" style="stroke-miterlimit: 2; opacity: 1;"><g class="fills"/><g class="errorbars"/><g class="lines"><path class="js-line" d="M0,303.21L0.6,304L1.21,301.7L2.42,296.08L3.02,289.93L4.83,282.75L5.43,281.42L6.64,281.84L7.25,283.32L9.06,293.03L9.66,292.33L10.27,292.38L10.87,291.3L13.29,284.31L13.89,285.28L14.49,285.18L15.1,285.98L17.51,291.15L18.12,293.88L19.32,294.22L19.93,293.24L20.53,292.27L21.14,292.72L22.34,293.51L22.95,292.27L24.15,289.16L24.76,284.21L29.59,228.8L30.19,229.95L33.21,250.7L33.82,252.59L34.42,253.86L35.02,250.78L39.25,223.1L39.86,225.62L40.46,226.74L41.06,229.57L44.69,261.75L45.29,264.95L47.1,270.98L47.71,270.2L48.91,264.74L49.52,258.11L51.33,248.6L51.93,243.33L53.74,234.62L54.35,233.54L55.56,230.95L56.16,228.74L57.97,230.51L58.57,229.94L59.18,230.86L59.78,227.31L62.2,212.14L62.8,206.61L64.61,197.92L65.22,199.18L65.82,200.51L66.43,205.13L67.03,207.32L67.63,214.38L70.05,235.66L70.65,240.76L73.67,255.1L74.28,255.28L79.71,233.07L80.31,233.72L80.92,228.97L81.52,229.71L82.13,225.55L82.73,226.85L83.33,223.6L85.75,217.23L86.35,210.79L86.96,213.37L87.56,205.49L88.16,205.25L88.77,203.72L89.37,201.92L89.98,195.9L91.18,193.9L91.79,190.66L93.6,196.08L94.2,198.23L97.22,216.27L97.83,219.15L99.03,224.31L99.64,223.43L101.45,226.87L102.05,229.38L103.86,230.46L104.47,232.76L105.07,235.78L105.68,234.06L107.49,226.1L108.09,225.36L108.7,224.31L109.3,219.6L110.51,215.52L111.11,214.27L112.32,216.68L112.92,211.29L113.53,204.83L114.13,205.4L114.73,201.18L115.94,198.17L116.55,192.19L118.96,174.55L119.57,173.7L120.17,172.73L120.77,168.51L121.38,167.94L121.98,169.71L125,185.14L125.6,186.47L126.21,186.14L126.81,186.87L127.42,187.33L128.02,186.54L130.43,181.43L131.04,184.83L131.64,184.27L132.25,178.44L136.47,198.99L137.08,207.66L138.29,209.49L138.89,205.43L141.91,189.71L142.51,180.89L144.32,169.89L144.93,162.01L146.14,151.99L146.74,145.37L147.34,147.02L147.95,145.73L148.55,147.3L149.15,152.37L149.76,157.76L150.36,155.14L150.97,156.34L151.57,170.96L152.78,162.82L153.38,163.86L153.99,157.7L154.59,160.68L155.19,162.33L155.8,168.52L156.4,162.81L157,172.71L159.42,179.51L160.02,183.51L160.63,186.97L161.23,185.24L163.65,199.12L164.25,199.38L164.86,198.44L165.46,194.75L166.67,190.39L167.27,183.24L169.08,165.57L169.69,169.8L170.29,166.41L170.89,169.54L171.5,170.38L172.1,178.85L173.91,198.76L174.52,197.41L175.12,197.59L175.72,195.15L176.33,193.14L176.93,185.39L177.54,185.86L178.14,178.46L178.74,179.37L179.35,173.51L181.16,148.53L181.76,147.85L184.18,119.42L184.78,128.93L188.41,185.79L189.01,199.18L189.61,211.34L190.22,208.87L190.82,209.05L191.43,206.34L192.03,198.56L193.24,204.82L193.84,180.8L195.65,170.71L196.26,170.66L196.86,170.36L197.46,167.54L198.07,167.12L198.67,190.66L199.28,191.19L199.88,193.73L201.69,202.27L202.29,205.82L202.9,206.03L203.5,202.57L204.71,196.34L205.31,202.18L205.92,202.18L206.52,189.99L208.33,154.3L208.94,156.2L210.75,130.29L211.35,140.33L215.58,202.6L216.18,201.18L216.79,201.44L217.39,199.2L218.6,184.06L219.2,184.76L221.01,170.07L221.62,162.6L222.22,164.48L222.83,169.91L224.03,153.38L224.64,155.3L225.85,163.07L226.45,170.36L227.05,169.95L227.66,175.41L228.86,189.59L229.47,190.13L230.68,182.37L231.28,178.84L234.3,160.35L234.9,163.76L236.71,171.16L237.32,171.46L239.13,192.49L239.73,192.72L240.94,199.38L241.55,198.98L242.15,208.38L242.75,194.69L243.36,194.88L243.96,196.99L244.57,199.32L245.17,197.12L246.38,198.69L246.98,188.68L247.58,193.43L248.19,188.06L251.21,152.56L251.81,145.89L253.02,138.1L253.62,138.85L255.43,127.89L256.04,131.73L256.64,134.49L257.25,152.56L259.66,168.29L260.27,169.73L260.87,173.83L261.47,172.58L262.68,163.47L263.29,162.88L265.1,183.42L265.7,186.6L267.51,206.18L268.12,208.11L268.72,212.64L269.32,212.47L269.93,212.03L271.14,217.52L271.74,219.21L273.55,235.13L274.15,234.36L274.76,234.58L275.36,235.12L275.97,234.64L276.57,235.63L277.17,232.46L277.78,229.08L278.38,221.06L278.99,218.5L279.59,219.5L281.4,196.25L282,194.82L283.82,160.67L284.42,147.44L285.02,141.52L285.63,142.71L286.23,137.4L286.84,129.62L287.44,138.19L288.04,136.66L288.65,141.46L289.86,141.42L290.46,136.16L291.06,133.66L291.67,135.75L292.27,130.28L292.87,133.01L293.48,126.64L294.08,128.75L295.29,132.11L295.89,139.17L296.5,139.84L297.1,149.62L298.31,168.39L298.91,178.49L302.54,230.97L303.14,236.61L304.95,242.67L305.56,244.43L306.16,244.61L306.76,243.14L307.97,237.38L308.57,234.25L309.78,227.99L310.39,224.25L314.61,193.44L315.22,193.07L316.43,184.26L317.03,193.02L318.24,175.4L318.84,171.14L319.44,167.1L320.05,153.36L321.26,142.21L321.86,123.45L322.46,123.62L323.07,120.88L323.67,116.95L324.28,107.21L325.48,106.61L326.09,104.38L326.69,106.46L327.29,114.57L328.5,128.67L329.11,139.96L332.73,205.16L333.33,211.56L335.14,229.16L335.75,231.23L336.35,236.8L336.96,236.06L337.56,235.23L339.37,227.23L339.98,221.06L340.58,223.59L341.18,207.97L341.79,206.65L342.39,200.07L344.81,185.28L345.41,174.21L346.01,175.75L346.62,170.68L347.22,169.53L347.83,164.46L348.43,161.96L349.03,146.65L350.85,115.84L351.45,101.67L353.86,45.05L354.47,39.74L355.07,39.44L355.68,47.31L356.28,41.57L356.88,52.05L358.7,106.55L359.3,122.14L361.11,170.91L361.71,185.83L364.13,221.72L364.73,234.1L365.94,239.73L366.55,236.83L367.15,239.26L367.75,236.57L370.77,209.06L371.38,200.96L373.19,180.9L373.79,175.87L375,166.38L375.6,167L376.81,175.1L377.42,174.16L378.02,176.03L378.62,171.42L379.23,169.35L379.83,175.75L381.64,107.04L382.25,87.31L383.45,49.2L384.06,53.01L384.66,16L385.27,43.81L385.87,45.15L386.47,64.75L388.29,108.9L388.89,106.74L389.49,136.46L390.1,141.31L390.7,153.24L391.91,172.78L392.51,188.64L394.93,212.02L395.53,209.07L396.14,209.4L396.74,208.77L399.15,192.59L399.76,184.13L400.36,177.17L400.97,177.5L401.57,171.93L402.17,170.47L402.78,158.63L404.59,137.68L405.19,131.27L407.61,53L408.21,61.69L409.42,24.32L410.02,18.07L411.23,43.73L411.84,24.37L412.44,17.73L413.04,19.92L415.46,71.08L416.06,73.05L417.27,163.16L417.87,164.25L419.08,195.51L419.69,199.27L420.89,208.47L421.5,212.55L423.31,224.5L423.91,223.89L425.12,231.48L425.72,232.81L428.14,215.59L428.74,214.93L431.16,169.7L431.76,164.23L432.37,158.43L432.97,143.22L433.57,136.16L434.18,138.19L434.78,138.8L435.39,128.39L435.99,130.34L436.59,126.53L437.2,123.78L437.8,133.25L439.01,136.87L439.61,143.58L440.22,151.95L440.82,151.59L441.43,157.36L443.84,171.35L444.44,172.74L445.05,177.49L445.65,176.35L446.26,174.08L447.46,166.74L448.07,154.8L449.88,138.84L450.48,145.17L452.9,167.04L453.5,164.56L454.11,170.34L454.71,170.05L455.31,167.27L455.92,170.24L456.52,153.83L457.73,144.38L458.33,146.29L458.94,145.74L459.54,134.29L460.75,115.76L461.35,126.34L461.96,129.27L462.56,138.35L465.58,172.48L466.18,177.19L466.79,183.15L467.39,180.51L468,167.03L468.6,169.69L469.2,171.98L471.01,171.27L471.62,166.05L472.22,167.61L472.83,175.07L474.64,163.47L475.24,169.82L477.05,118.31L477.66,111.44L479.47,100.72L480.07,81.72L481.88,127.28L482.49,134.57L484.3,148.4L484.9,166.02L486.11,161.78L486.71,156.45L488.53,139.83L489.13,140.26L489.73,133.25L490.34,137.04L493.36,195.09L493.96,199.52L495.17,213.43L495.77,208.04L496.38,211.55L496.98,210.61L497.58,217.91L498.19,213.63L500,225.28" style="vector-effect: non-scaling-stroke; fill: none; stroke: rgb(99, 110, 250); stroke-opacity: 1; stroke-width: 2px; opacity: 1;"/></g><g class="points"/><g class="text"/></g><g class="trace scatter trace827daa" style="stroke-miterlimit: 2; opacity: 1;"><g class="fills"/><g class="errorbars"/><g class="lines"><path class="js-line" d="M230.07,156.03L233.09,173.72L233.7,177.88L239.13,211.32L239.73,213.59L241.55,217.63L242.15,217.97L243.36,217.12L243.96,215.93L245.77,209.52L246.38,206.52L250,182.68L250.6,178.24L255.43,148.48L256.04,146.26L257.85,142.47L258.45,142.22L259.66,143.27L260.27,144.55L262.08,151.16L262.68,154.18L266.3,177.62L266.91,181.89L271.14,206.9L271.74,209.16L273.55,213.13L274.15,213.46L275.36,212.56L275.97,211.34L277.78,204.87L278.38,201.87L282,178.07L282.61,173.65L286.84,146.91L287.44,144.32L289.25,139.31L289.86,138.62L291.06,138.8L291.67,139.66L293.48,145.14L294.08,147.84L297.1,166.1L297.71,170.33L301.93,198.19" style="vector-effect: non-scaling-stroke; fill: none; stroke: rgb(239, 85, 59); stroke-opacity: 1; stroke-width: 2px; opacity: 1;"/></g><g class="points"/><g class="text"/></g></g></g><g class="overplot"/><path class="xlines-above crisp" d="M0,0" style="fill: none;"/><path class="ylines-above crisp" d="M0,0" style="fill: none;"/><g class="overlines-above"/><g class="xaxislayer-above"/><g class="yaxislayer-above"><g class="ytick"><text text-anchor="end" x="79" y="4.199999999999999" transform="translate(0,404)" style="font-family: 'Open Sans', verdana, arial, sans-serif; font-size: 12px; fill: rgb(42, 63, 95); fill-opacity: 1; white-space: pre;">0</text></g><g class="ytick"><text text-anchor="end" x="79" y="4.199999999999999" transform="translate(0,346.4)" style="font-family: 'Open Sans', verdana, arial, sans-serif; font-size: 12px; fill: rgb(42, 63, 95); fill-opacity: 1; white-space: pre;">0.2</text></g><g class="ytick"><text text-anchor="end" x="79" y="4.199999999999999" transform="translate(0,288.8)" style="font-family: 'Open Sans', verdana, arial, sans-serif; font-size: 12px; fill: rgb(42, 63, 95); fill-opacity: 1; white-space: pre;">0.4</text></g><g class="ytick"><text text-anchor="end" x="79" y="4.199999999999999" transform="translate(0,231.2)" style="font-family: 'Open Sans', verdana, arial, sans-serif; font-size: 12px; fill: rgb(42, 63, 95); fill-opacity: 1; white-space: pre;">0.6</text></g><g class="ytick"><text text-anchor="end" x="79" y="4.199999999999999" transform="translate(0,173.6)" style="font-family: 'Open Sans', verdana, arial, sans-serif; font-size: 12px; fill: rgb(42, 63, 95); fill-opacity: 1; white-space: pre;">0.8</text></g><g class="ytick"><text text-anchor="end" x="79" y="4.199999999999999" transform="translate(0,116)" style="font-family: 'Open Sans', verdana, arial, sans-serif; font-size: 12px; fill: rgb(42, 63, 95); fill-opacity: 1; white-space: pre;">1</text></g></g><g class="overaxes-above"/></g></g><g class="polarlayer"/><g class="ternarylayer"/><g class="geolayer"/><g class="funnelarealayer"/><g class="pielayer"/><g class="treemaplayer"/><g class="sunburstlayer"/><g class="glimages"/><defs id="topdefs-14bcb3"><g class="clips"/><clipPath id="legend14bcb3"><rect width="98" height="48" x="0" y="0"/></clipPath></defs><g class="layer-above"><g class="imagelayer"/><g class="shapelayer"/></g><g class="infolayer"><g class="legend" pointer-events="all" transform="translate(590,100)"><rect class="bg" shape-rendering="crispEdges" width="98" height="48" x="0" y="0" style="stroke: rgb(68, 68, 68); stroke-opacity: 1; fill: rgb(255, 255, 255); fill-opacity: 1; stroke-width: 0px;"/><g class="scrollbox" transform="" clip-path="url('#legend14bcb3')"><g class="groups"><g class="traces" transform="translate(0,14.5)" style="opacity: 1;"><text class="legendtext" text-anchor="start" x="40" y="4.680000000000001" style="font-family: 'Open Sans', verdana, arial, sans-serif; font-size: 12px; fill: rgb(42, 63, 95); fill-opacity: 1; white-space: pre;">y_train</text><g class="layers" style="opacity: 1;"><g class="legendfill"/><g class="legendlines"><path class="js-line" d="M5,0h30" style="fill: none; stroke: rgb(99, 110, 250); stroke-opacity: 1; stroke-width: 2px;"/></g><g class="legendsymbols"><g class="legendpoints"/></g></g><rect class="legendtoggle" x="0" y="-9.5" width="92.1875" height="19" style="fill: rgb(0, 0, 0); fill-opacity: 0;"/></g><g class="traces" transform="translate(0,33.5)" style="opacity: 1;"><text class="legendtext" text-anchor="start" x="40" y="4.680000000000001" style="font-family: 'Open Sans', verdana, arial, sans-serif; font-size: 12px; fill: rgb(42, 63, 95); fill-opacity: 1; white-space: pre;">estimate</text><g class="layers" style="opacity: 1;"><g class="legendfill"/><g class="legendlines"><path class="js-line" d="M5,0h30" style="fill: none; stroke: rgb(239, 85, 59); stroke-opacity: 1; stroke-width: 2px;"/></g><g class="legendsymbols"><g class="legendpoints"/></g></g><rect class="legendtoggle" x="0" y="-9.5" width="92.1875" height="19" style="fill: rgb(0, 0, 0); fill-opacity: 0;"/></g></g></g><rect class="scrollbar" rx="20" ry="3" width="0" height="0" x="0" y="0" style="fill: rgb(128, 139, 164); fill-opacity: 1;"/></g><g class="g-gtitle"><text class="gtitle" x="35" y="50" text-anchor="start" dy="0em" style="font-family: 'Open Sans', verdana, arial, sans-serif; font-size: 17px; fill: rgb(42, 63, 95); opacity: 1; font-weight: normal; white-space: pre;">Fitting at i = 500</text></g><g class="g-xtitle"/><g class="g-ytitle"/></g></svg>