<svg class="main-svg" xmlns="http://www.w3.org/2000/svg" xmlns:xlink="http://www.w3.org/1999/xlink" width="700" height="500" style="" viewBox="0 0 700 500"><rect x="0" y="0" width="700" height="500" style="fill: rgb(255, 255, 255); fill-opacity: 1;"/><defs id="defs-429b74"><g class="clips"><clipPath id="clip429b74xyplot" class="plotclip"><rect width="500" height="320"/></clipPath><clipPath class="axesclip" id="clip429b74x"><rect x="80" y="0" width="500" height="500"/></clipPath><clipPath class="axesclip" id="clip429b74y"><rect x="0" y="100" width="700" height="320"/></clipPath><clipPath class="axesclip" id="clip429b74xy"><rect x="80" y="100" width="500" height="320"/></clipPath></g><g class="gradients"/></defs><g class="bglayer"><rect class="bg" x="80" y="100" width="500" height="320" style="fill: rgb(229, 236, 246); fill-opacity: 1; stroke-width: 0;"/></g><g class="layer-below"><g class="imagelayer"/><g class="shapelayer"/></g><g class="cartesianlayer"><g class="subplot xy"><g class="layer-subplot"><g class="shapelayer"/><g class="imagelayer"/></g><g class="gridlayer"><g class="x"><path class="xgrid crisp" transform="translate(173,0)" d="M0,100v320" style="stroke: rgb(255, 255, 255); stroke-opacity: 1; stroke-width: 1px;"/><path class="xgrid crisp" transform="translate(282.28999999999996,0)" d="M0,100v320" style="stroke: rgb(255, 255, 255); stroke-opacity: 1; stroke-width: 1px;"/><path class="xgrid crisp" transform="translate(393.41,0)" d="M0,100v320" style="stroke: rgb(255, 255, 255); stroke-opacity: 1; stroke-width: 1px;"/><path class="xgrid crisp" transform="translate(502.71,0)" d="M0,100v320" style="stroke: rgb(255, 255, 255); stroke-opacity: 1; stroke-width: 1px;"/></g><g class="y"><path class="ygrid crisp" transform="translate(0,340.24)" d="M80,0h500" style="stroke: rgb(255, 255, 255); stroke-opacity: 1; stroke-width: 1px;"/><path class="ygrid crisp" transform="translate(0,284.18)" d="M80,0h500" style="stroke: rgb(255, 255, 255); stroke-opacity: 1; stroke-width: 1px;"/><path class="ygrid crisp" transform="translate(0,228.12)" d="M80,0h500" style="stroke: rgb(255, 255, 255); stroke-opacity: 1; stroke-width: 1px;"/><path class="ygrid crisp" transform="translate(0,172.06)" d="M80,0h500" style="stroke: rgb(255, 255, 255); stroke-opacity: 1; stroke-width: 1px;"/><path class="ygrid crisp" transform="translate(0,116)" d="M80,0h500" style="stroke: rgb(255, 255, 255); stroke-opacity: 1; stroke-width: 1px;"/></g></g><g class="zerolinelayer"><path class="yzl zl crisp" transform="translate(0,396.3)" d="M80,0h500" style="stroke: rgb(255, 255, 255); stroke-opacity: 1; stroke-width: 2px;"/></g><path class="xlines-below"/><path class="ylines-below"/><g class="overlines-below"/><g class="xaxislayer-below"/><g class="yaxislayer-below"/><g class="overaxes-below"/><g class="plot" transform="translate(80,100)" clip-path="url('#clip429b74xyplot')"><g class="scatterlayer mlayer"><g class="trace scatter trace104385" style="stroke-miterlimit: 2; opacity: 1;"><g class="fills"/><g class="errorbars"/><g class="lines"><path class="js-line" d="M0,295.53L0.6,296.3L1.21,294.06L2.42,288.6L3.02,282.6L4.83,275.62L5.43,274.33L6.64,274.73L7.25,276.17L9.06,285.62L9.66,284.95L10.27,284.99L10.87,283.94L13.29,277.13L13.89,278.08L14.49,277.98L15.1,278.76L17.51,283.79L18.12,286.45L19.32,286.78L19.93,285.82L20.53,284.89L21.14,285.32L21.74,286.21L22.34,286.09L22.95,284.89L24.15,281.85L24.76,277.04L29.59,223.11L30.19,224.23L33.21,244.43L33.82,246.27L34.42,247.5L35.02,244.5L39.25,217.56L39.86,220.01L40.46,221.11L41.06,223.86L45.29,258.3L45.89,260.11L47.1,264.16L47.71,263.4L48.91,258.08L49.52,251.64L51.33,242.38L51.93,237.25L53.74,228.78L54.35,227.72L55.56,225.2L56.16,223.05L57.97,224.77L58.57,224.22L59.18,225.12L59.78,221.66L62.2,206.89L62.8,201.51L64.61,193.06L65.22,194.28L65.82,195.57L66.43,200.07L67.03,202.2L67.63,209.08L70.05,229.79L70.65,234.75L73.67,248.71L74.28,248.89L79.71,227.26L80.31,227.9L80.92,223.28L81.52,224L82.13,219.95L82.73,221.21L83.33,218.05L85.75,211.85L86.35,205.58L86.96,208.09L87.56,200.42L88.16,200.19L88.77,198.7L89.37,196.95L89.98,191.09L91.18,189.14L91.79,185.99L93.6,191.26L94.2,193.36L97.22,210.92L97.83,213.72L99.03,218.74L99.64,217.88L101.45,221.24L102.05,223.67L103.86,224.72L104.47,226.97L105.07,229.9L105.68,228.23L107.49,220.49L108.09,219.76L108.7,218.74L109.3,214.16L110.51,210.19L111.11,208.97L112.32,211.31L112.92,206.07L113.53,199.78L114.13,200.33L114.73,196.23L115.94,193.3L116.55,187.48L118.96,170.31L119.57,169.48L120.17,168.54L120.77,164.43L121.38,163.88L121.98,165.6L125,180.62L125.6,181.91L126.21,181.59L126.81,182.3L127.42,182.75L128.02,181.98L130.43,177.01L131.04,180.32L131.64,179.77L132.25,174.1L136.47,194.1L137.08,202.53L138.29,204.32L138.89,200.36L141.91,185.06L142.51,176.48L144.32,165.78L144.93,158.11L146.14,148.35L146.74,141.92L147.34,143.52L147.95,142.26L148.55,143.79L149.15,148.72L149.76,153.97L150.36,151.42L150.97,152.59L151.57,166.82L152.78,158.89L153.38,159.9L153.99,153.91L154.59,156.82L155.19,158.42L155.8,164.44L156.4,158.89L157,168.52L159.42,175.14L160.02,179.03L160.63,182.4L161.23,180.71L163.65,194.23L164.25,194.48L164.86,193.56L165.46,189.97L166.67,185.73L167.27,178.77L169.08,161.57L169.69,165.69L170.29,162.39L170.89,165.44L171.5,166.25L172.1,174.5L173.91,193.87L174.52,192.56L175.12,192.73L175.72,190.36L176.33,188.4L176.93,180.86L177.54,181.32L178.14,174.11L178.74,175L179.35,169.3L181.16,144.99L181.76,144.32L184.18,116.66L184.78,125.91L188.41,181.25L189.01,194.28L189.61,206.12L190.22,203.72L190.82,203.89L191.43,201.25L192.03,193.68L193.24,199.77L193.84,176.4L195.65,166.57L196.26,166.52L196.86,166.23L197.46,163.49L198.07,163.08L198.67,185.99L199.28,186.5L199.88,188.97L201.69,197.29L202.29,200.74L202.9,200.95L203.5,197.58L204.71,191.52L205.31,197.2L205.92,197.2L206.52,185.34L208.33,150.6L208.94,152.45L210.75,127.23L211.35,137.01L215.58,197.61L216.18,196.23L216.79,196.48L217.39,194.3L218.6,179.57L219.2,180.25L221.01,165.95L221.62,158.68L222.22,160.51L222.83,165.8L224.03,149.71L224.64,151.58L225.85,159.13L226.45,166.23L227.05,165.83L227.66,171.15L228.86,184.94L229.47,185.47L230.68,177.92L231.28,174.48L234.3,156.49L234.9,159.81L236.71,167.01L237.32,167.31L239.13,187.77L239.73,188L240.94,194.47L241.55,194.08L242.15,203.24L242.75,189.91L243.36,190.09L243.96,192.15L244.57,194.41L245.17,192.28L246.38,193.81L246.98,184.06L247.58,188.68L248.19,183.46L251.21,148.91L251.81,142.42L253.02,134.83L253.62,135.56L255.43,124.9L256.04,128.64L256.64,131.33L257.25,148.91L259.66,164.22L260.27,165.62L260.87,169.61L261.47,168.39L262.68,159.53L263.29,158.96L265.1,178.94L265.7,182.04L267.51,201.09L268.12,202.97L268.72,207.38L269.32,207.22L269.93,206.78L271.14,212.13L271.74,213.78L273.55,229.27L274.15,228.52L274.76,228.74L275.36,229.26L275.97,228.79L276.57,229.76L277.17,226.67L277.78,223.38L278.38,215.57L278.99,213.09L279.59,214.05L281.4,191.43L282,190.03L283.82,156.8L284.42,143.93L285.02,138.16L285.63,139.32L286.23,134.16L286.84,126.58L287.44,134.92L288.04,133.43L288.65,138.1L289.86,138.06L290.46,132.95L291.06,130.52L291.67,132.55L292.27,127.23L292.87,129.89L293.48,123.68L294.08,125.74L295.29,129.01L295.89,135.88L296.5,136.53L297.1,146.04L298.31,164.32L298.91,174.15L302.54,225.22L303.14,230.71L304.95,236.6L305.56,238.32L306.16,238.5L306.76,237.07L307.97,231.46L308.57,228.42L309.78,222.32L310.39,218.68L314.61,188.7L315.22,188.34L316.43,179.76L317.03,188.29L318.24,171.14L318.84,166.99L319.44,163.06L320.05,149.69L321.26,138.84L321.86,120.57L322.46,120.74L323.07,118.07L323.67,114.25L324.28,104.77L325.48,104.18L326.09,102.01L326.69,104.04L327.29,111.94L328.5,125.66L329.11,136.64L332.73,200.1L333.33,206.33L335.14,223.46L335.75,225.47L336.35,230.89L336.96,230.18L337.56,229.37L339.37,221.58L339.98,215.57L340.58,218.04L341.18,202.83L341.79,201.55L342.39,195.15L344.81,180.75L345.41,169.98L346.01,171.48L346.62,166.55L347.22,165.42L347.83,160.49L348.43,158.06L349.03,143.16L350.85,113.17L351.45,99.38L353.86,44.28L354.47,39.1L355.07,38.81L355.68,46.47L356.28,40.89L356.88,51.09L358.7,104.13L359.3,119.3L361.11,166.77L361.71,181.28L364.13,216.22L364.73,228.27L365.94,233.75L366.55,230.92L367.15,233.29L367.75,230.68L370.77,203.9L371.38,196.02L373.19,176.5L373.79,171.6L375,162.36L375.6,162.96L376.81,170.85L377.42,169.93L378.02,171.75L378.62,167.26L379.23,165.25L379.83,171.48L381.64,104.61L382.25,85.4L383.45,48.31L384.06,52.02L384.66,16L385.27,43.06L385.87,44.37L386.47,63.45L388.29,106.42L388.89,104.31L389.49,133.23L390.1,137.96L390.7,149.57L391.91,168.59L392.51,184.02L394.93,206.78L395.53,203.91L396.14,204.23L396.74,203.61L399.15,187.87L399.76,179.63L400.36,172.86L400.97,173.19L401.57,167.76L402.17,166.34L402.78,154.81L404.59,134.43L405.19,128.19L407.61,52.01L408.21,60.47L409.42,24.1L410.02,18.02L411.23,42.98L411.84,24.15L412.44,17.68L413.04,19.81L415.46,69.61L416.06,71.52L417.27,159.22L417.87,160.29L419.08,190.71L419.69,194.37L420.89,203.32L421.5,207.3L423.31,218.93L423.91,218.33L425.12,225.72L425.72,227.01L428.14,210.25L428.74,209.61L431.16,165.59L431.76,160.26L432.37,154.62L432.97,139.82L433.57,132.95L434.18,134.92L434.78,135.52L435.39,125.38L435.99,127.28L436.59,123.57L437.2,120.9L437.8,130.11L439.01,133.64L439.61,140.17L440.22,148.32L440.82,147.97L441.43,153.58L443.84,167.19L444.44,168.54L445.05,173.17L445.65,172.06L446.26,169.85L447.46,162.71L448.07,151.09L449.88,135.55L450.48,141.71L452.9,163L453.5,160.58L454.11,166.22L454.71,165.93L455.31,163.23L455.92,166.11L456.52,150.14L457.73,140.95L458.33,142.81L458.94,142.27L459.54,131.13L460.75,113.09L461.35,123.39L461.96,126.24L462.56,135.08L465.58,168.3L466.18,172.88L466.79,178.68L467.39,176.11L468,162.99L468.6,165.58L469.2,167.81L471.01,167.12L471.62,162.04L472.22,163.56L472.83,170.81L474.64,159.53L475.24,165.71L477.05,115.57L477.66,108.89L479.47,98.45L480.07,79.96L481.88,124.3L482.49,131.4L484.3,144.86L484.9,162.01L486.11,157.88L486.71,152.69L488.53,136.52L489.13,136.93L489.73,130.11L490.34,133.81L493.36,190.3L493.96,194.62L495.17,208.15L495.77,202.9L496.38,206.32L496.98,205.41L497.58,212.51L498.19,208.34L500,219.69" style="vector-effect: non-scaling-stroke; fill: none; stroke: rgb(99, 110, 250); stroke-opacity: 1; stroke-width: 2px; opacity: 1;"/></g><g class="points"/><g class="text"/></g><g class="trace scatter trace5f49f7" style="stroke-miterlimit: 2; opacity: 1;"><g class="fills"/><g class="errorbars"/><g class="lines"><path class="js-line" d="M0,251.22L1.81,247.87L2.42,247.73L3.62,248.91L4.23,250.19L6.64,259.28L7.25,262.34L14.49,300.22L15.1,301.85L16.91,304L17.51,303.76L18.72,301.8L19.32,300.09L21.74,288.93L22.34,285.21L31.4,225.8L32,223.94L33.82,221.25L34.42,221.34L35.63,222.95L36.23,224.43L38.65,234.2L39.25,237.39L46.5,275.02L47.1,276.5L48.91,278.18L49.52,277.77L50.72,275.48L51.33,273.63L53.74,261.96L54.35,258.16L62.8,202.32L63.41,200.24L65.22,196.85L65.82,196.7L67.03,197.86L67.63,199.14L69.44,205.47L70.05,208.29L78.5,252.35L79.11,253.71L80.31,255.04L80.92,254.98L82.13,253.39L82.73,251.87L85.14,241.4L85.75,237.85L94.81,179.84L95.41,178.02L97.22,175.44L97.83,175.56L99.03,177.25L99.64,178.79L102.05,188.82L102.66,192.09L109.9,231.58L110.51,233.26L112.32,235.59L112.92,235.41L114.13,233.56L114.73,231.92L117.15,221.09L117.75,217.48L126.21,163.36L126.81,161.35L128.62,158.13L129.23,158.04L130.43,159.33L131.04,160.67L133.45,170.15L134.06,173.36L141.91,216.51L142.51,218.09L144.32,220.05L144.93,219.73L146.14,217.64L146.74,215.88L149.15,204.69L149.76,201.04L158.21,148.6L158.82,146.84L160.63,144.44L161.23,144.62L162.44,146.44L163.04,148.04L165.46,158.4L166.06,161.78L173.31,203.2L173.91,205.1L175.72,208.09L176.33,208.13L177.54,206.73L178.14,205.31L180.56,195.29L181.16,191.87L189.61,139.36L190.22,137.39L192.03,134.32L192.63,134.27L193.84,135.64L194.44,137.03L196.86,146.76L197.46,150.04L205.31,195.02L205.92,196.8L207.73,199.37L208.33,199.25L209.54,197.55L210.14,195.99L212.56,185.53L213.16,182.04L221.62,130.84L222.22,129.11L224.03,126.77L224.64,126.97L225.85,128.83L226.45,130.46L228.86,140.97L229.47,144.41L237.32,189.31L237.92,190.94L239.73,193.04L240.34,192.76L241.55,190.74L242.15,189.03L244.57,178.09L245.17,174.53L253.02,126.55L253.62,124.6L255.43,121.51L256.04,121.46L257.25,122.83L257.85,124.22L260.27,133.99L260.87,137.3L268.72,183.5L269.32,185.42L271.14,188.45L271.74,188.49L272.95,187.1L273.55,185.69L275.97,175.77L276.57,172.4L285.02,121.82L285.63,120.07L287.44,117.66L288.04,117.84L289.25,119.65L289.86,121.26L292.27,131.76L292.87,135.2L300.72,181.1L301.33,182.87L303.14,185.37L303.74,185.23L304.95,183.48L305.56,181.9L307.97,171.42L308.57,167.95L317.03,118.34L317.63,116.8L319.44,115.05L320.05,115.45L321.26,117.69L321.86,119.5L324.28,130.67L324.88,134.23L332.13,177.6L332.73,179.63L334.54,183.02L335.14,183.18L336.35,182.03L336.96,180.74L338.77,174.2L339.37,171.24L343,148.38L343.6,144.22L347.83,119.81L348.43,117.58L350.24,113.6L350.85,113.22L352.05,113.96L352.66,115.05L354.47,121.04L355.07,123.83L358.7,146.03L359.3,150.13L363.53,174.64L364.13,176.93L365.94,181.16L366.55,181.63L367.75,181.07L368.36,180.07L370.17,174.31L370.77,171.57L374.4,149.43L375,145.28L379.23,120L379.83,117.54L381.64,112.77L382.25,112.12L383.45,112.3L384.06,113.12L385.87,118.36L386.47,120.95L389.49,138.42L390.1,142.47L395.53,174.55L396.14,176.68L397.95,180.37L398.55,180.63L399.76,179.69L400.36,178.49L402.17,172.23L402.78,169.35L407,142.63L407.61,138.53L411.23,118.04L411.84,115.76L413.65,111.57L414.25,111.13L415.46,111.73L416.06,112.75L417.87,118.56L418.48,121.31L422.1,143.38L422.71,147.5L426.93,172.37L427.54,174.75L429.35,179.26L429.95,179.82L431.16,179.46L431.76,178.55L433.57,173.06L434.18,170.4L437.8,148.55L438.41,144.41L442.63,118.95L443.24,116.43L445.05,111.46L445.65,110.74L446.86,110.76L447.46,111.51L449.28,116.55L449.88,119.08L452.9,136.39L453.5,140.44L458.94,172.9L459.54,175.11L461.35,179.06L461.96,179.42L463.16,178.66L463.77,177.56L465.58,171.54L466.18,168.73L469.81,146.39L470.41,142.26L474.64,117.44L475.24,115.1L477.05,110.69L477.66,110.18L478.86,110.61L479.47,111.57L481.28,117.16L481.88,119.85L485.51,141.76L486.11,145.88L490.34,171.06L490.94,173.51L492.75,178.28L493.36,178.93L494.57,178.76L495.17,177.94L496.98,172.69L497.58,170.1L500,156.53" style="vector-effect: non-scaling-stroke; fill: none; stroke: rgb(239, 85, 59); stroke-opacity: 1; stroke-width: 2px; opacity: 1;"/></g><g class="points"/><g class="text"/></g></g></g><g class="overplot"/><path class="xlines-above crisp" d="M0,0" style="fill: none;"/><path class="ylines-above crisp" d="M0,0" style="fill: none;"/><g class="overlines-above"/><g class="xaxislayer-above"><g class="xtick"><text text-anchor="middle" x="0" y="433" transform="translate(173,0)" style="font-family: 'Open Sans', verdana, arial, sans-serif; font-size: 12px; fill: rgb(42, 63, 95); fill-opacity: 1; white-space: pre;">Jan 2018</text></g><g class="xtick"><text text-anchor="middle" x="0" y="433" transform="translate(282.28999999999996,0)" style="font-family: 'Open Sans', verdana, arial, sans-serif; font-size: 12px; fill: rgb(42, 63, 95); fill-opacity: 1; white-space: pre;">Jul 2018</text></g><g class="xtick"><text text-anchor="middle" x="0" y="433" transform="translate(393.41,0)" style="font-family: 'Open Sans', verdana, arial, sans-serif; font-size: 12px; fill: rgb(42, 63, 95); fill-opacity: 1; white-space: pre;">Jan 2019</text></g><g class="xtick"><text text-anchor="middle" x="0" y="433" transform="translate(502.71,0)" style="font-family: 'Open Sans', verdana, arial, sans-serif; font-size: 12px; fill: rgb(42, 63, 95); fill-opacity: 1; white-space: pre;">Jul 2019</text></g></g><g class="yaxislayer-above"><g class="ytick"><text text-anchor="end" x="79" y="4.199999999999999" transform="translate(0,396.3)" style="font-family: 'Open Sans', verdana, arial, sans-serif; font-size: 12px; fill: rgb(42, 63, 95); fill-opacity: 1; white-space: pre;">0</text></g><g class="ytick"><text text-anchor="end" x="79" y="4.199999999999999" transform="translate(0,340.24)" style="font-family: 'Open Sans', verdana, arial, sans-serif; font-size: 12px; fill: rgb(42, 63, 95); fill-opacity: 1; white-space: pre;">0.2</text></g><g class="ytick"><text text-anchor="end" x="79" y="4.199999999999999" transform="translate(0,284.18)" style="font-family: 'Open Sans', verdana, arial, sans-serif; font-size: 12px; fill: rgb(42, 63, 95); fill-opacity: 1; white-space: pre;">0.4</text></g><g class="ytick"><text text-anchor="end" x="79" y="4.199999999999999" transform="translate(0,228.12)" style="font-family: 'Open Sans', verdana, arial, sans-serif; font-size: 12px; fill: rgb(42, 63, 95); fill-opacity: 1; white-space: pre;">0.6</text></g><g class="ytick"><text text-anchor="end" x="79" y="4.199999999999999" transform="translate(0,172.06)" style="font-family: 'Open Sans', verdana, arial, sans-serif; font-size: 12px; fill: rgb(42, 63, 95); fill-opacity: 1; white-space: pre;">0.8</text></g><g class="ytick"><text text-anchor="end" x="79" y="4.199999999999999" transform="translate(0,116)" style="font-family: 'Open Sans', verdana, arial, sans-serif; font-size: 12px; fill: rgb(42, 63, 95); fill-opacity: 1; white-space: pre;">1</text></g></g><g class="overaxes-above"/></g></g><g class="polarlayer"/><g class="ternarylayer"/><g class="geolayer"/><g class="funnelarealayer"/><g class="pielayer"/><g class="treemaplayer"/><g class="sunburstlayer"/><g class="glimages"/><defs id="topdefs-429b74"><g class="clips"/><clipPath id="legend429b74"><rect width="98" height="64" x="0" y="0"/></clipPath></defs><g class="layer-above"><g class="imagelayer"/><g class="shapelayer"/></g><g class="infolayer"><g class="legend" pointer-events="all" transform="translate(590,100)"><rect class="bg" shape-rendering="crispEdges" width="98" height="64" x="0" y="0" style="stroke: rgb(68, 68, 68); stroke-opacity: 1; fill: rgb(255, 255, 255); fill-opacity: 1; stroke-width: 0px;"/><g class="scrollbox" transform="" clip-path="url('#legend429b74')"><text class="legendtitletext" text-anchor="start" x="2" y="15.600000000000001" style="font-family: 'Open Sans', verdana, arial, sans-serif; font-size: 12px; fill: rgb(42, 63, 95); fill-opacity: 1; white-space: pre;">variable</text><g class="groups" transform=""><g class="traces" transform="translate(0,30.1)" style="opacity: 1;"><text class="legendtext" text-anchor="start" x="40" y="4.680000000000001" style="font-family: 'Open Sans', verdana, arial, sans-serif; font-size: 12px; fill: rgb(42, 63, 95); fill-opacity: 1; white-space: pre;">y_train</text><g class="layers" style="opacity: 1;"><g class="legendfill"/><g class="legendlines"><path class="js-line" d="M5,0h30" style="fill: none; stroke: rgb(99, 110, 250); stroke-opacity: 1; stroke-width: 2px;"/></g><g class="legendsymbols"><g class="legendpoints"/></g></g><rect class="legendtoggle" x="0" y="-9.5" width="92.1875" height="19" style="fill: rgb(0, 0, 0); fill-opacity: 0;"/></g></g><g class="groups" transform=""><g class="traces" transform="translate(0,49.1)" style="opacity: 1;"><text class="legendtext" text-anchor="start" x="40" y="4.680000000000001" style="font-family: 'Open Sans', verdana, arial, sans-serif; font-size: 12px; fill: rgb(42, 63, 95); fill-opacity: 1; white-space: pre;">estimate</text><g class="layers" style="opacity: 1;"><g class="legendfill"/><g class="legendlines"><path class="js-line" d="M5,0h30" style="fill: none; stroke: rgb(239, 85, 59); stroke-opacity: 1; stroke-width: 2px;"/></g><g class="legendsymbols"><g class="legendpoints"/></g></g><rect class="legendtoggle" x="0" y="-9.5" width="92.1875" height="19" style="fill: rgb(0, 0, 0); fill-opacity: 0;"/></g></g></g><rect class="scrollbar" rx="20" ry="3" width="0" height="0" x="0" y="0" style="fill: rgb(128, 139, 164); fill-opacity: 1;"/></g><g class="g-gtitle"><text class="gtitle" x="35" y="50" text-anchor="start" dy="0em" style="font-family: 'Open Sans', verdana, arial, sans-serif; font-size: 17px; fill: rgb(42, 63, 95); opacity: 1; font-weight: normal; white-space: pre;">Initial estimate</text></g><g class="g-xtitle"><text class="xtitle" x="330" y="460.3" text-anchor="middle" style="font-family: 'Open Sans', verdana, arial, sans-serif; font-size: 14px; fill: rgb(42, 63, 95); opacity: 1; font-weight: normal; white-space: pre;">date</text></g><g class="g-ytitle"><text class="ytitle" transform="rotate(-90,34.575,260)" x="34.575" y="260" text-anchor="middle" style="font-family: 'Open Sans', verdana, arial, sans-serif; font-size: 14px; fill: rgb(42, 63, 95); opacity: 1; font-weight: normal; white-space: pre;">value</text></g></g></svg>