<svg class="main-svg" xmlns="http://www.w3.org/2000/svg" xmlns:xlink="http://www.w3.org/1999/xlink" width="700" height="500" style="" viewBox="0 0 700 500"><rect x="0" y="0" width="700" height="500" style="fill: rgb(255, 255, 255); fill-opacity: 1;"/><defs id="defs-619e1d"><g class="clips"><clipPath id="clip619e1dxyplot" class="plotclip"><rect width="499" height="320"/></clipPath><clipPath class="axesclip" id="clip619e1dx"><rect x="80" y="0" width="499" height="500"/></clipPath><clipPath class="axesclip" id="clip619e1dy"><rect x="0" y="100" width="700" height="320"/></clipPath><clipPath class="axesclip" id="clip619e1dxy"><rect x="80" y="100" width="499" height="320"/></clipPath></g><g class="gradients"/></defs><g class="bglayer"><rect class="bg" x="80" y="100" width="499" height="320" style="fill: rgb(229, 236, 246); fill-opacity: 1; stroke-width: 0;"/></g><g class="layer-below"><g class="imagelayer"/><g class="shapelayer"/></g><g class="cartesianlayer"><g class="subplot xy"><g class="layer-subplot"><g class="shapelayer"/><g class="imagelayer"/></g><g class="gridlayer"><g class="x"><path class="xgrid crisp" transform="translate(154.18,0)" d="M0,100v320" style="stroke: rgb(255, 255, 255); stroke-opacity: 1; stroke-width: 1px;"/><path class="xgrid crisp" transform="translate(241.36,0)" d="M0,100v320" style="stroke: rgb(255, 255, 255); stroke-opacity: 1; stroke-width: 1px;"/><path class="xgrid crisp" transform="translate(329.98,0)" d="M0,100v320" style="stroke: rgb(255, 255, 255); stroke-opacity: 1; stroke-width: 1px;"/><path class="xgrid crisp" transform="translate(417.16,0)" d="M0,100v320" style="stroke: rgb(255, 255, 255); stroke-opacity: 1; stroke-width: 1px;"/><path class="xgrid crisp" transform="translate(505.79,0)" d="M0,100v320" style="stroke: rgb(255, 255, 255); stroke-opacity: 1; stroke-width: 1px;"/></g><g class="y"><path class="ygrid crisp" transform="translate(0,346.4)" d="M80,0h499" style="stroke: rgb(255, 255, 255); stroke-opacity: 1; stroke-width: 1px;"/><path class="ygrid crisp" transform="translate(0,288.8)" d="M80,0h499" style="stroke: rgb(255, 255, 255); stroke-opacity: 1; stroke-width: 1px;"/><path class="ygrid crisp" transform="translate(0,231.2)" d="M80,0h499" style="stroke: rgb(255, 255, 255); stroke-opacity: 1; stroke-width: 1px;"/><path class="ygrid crisp" transform="translate(0,173.6)" d="M80,0h499" style="stroke: rgb(255, 255, 255); stroke-opacity: 1; stroke-width: 1px;"/><path class="ygrid crisp" transform="translate(0,116)" d="M80,0h499" style="stroke: rgb(255, 255, 255); stroke-opacity: 1; stroke-width: 1px;"/></g></g><g class="zerolinelayer"><path class="yzl zl crisp" transform="translate(0,404)" d="M80,0h499" style="stroke: rgb(255, 255, 255); stroke-opacity: 1; stroke-width: 2px;"/></g><path class="xlines-below"/><path class="ylines-below"/><g class="overlines-below"/><g class="xaxislayer-below"/><g class="yaxislayer-below"/><g class="overaxes-below"/><g class="plot" transform="translate(80,100)" clip-path="url('#clip619e1dxyplot')"><g class="scatterlayer mlayer"><g class="trace scatter trace31d8a7" style="stroke-miterlimit: 2; opacity: 1;"><g class="fills"/><g class="errorbars"/><g class="lines"><path class="js-line" d="M0,303.21L0.48,304L0.96,301.7L1.93,296.08L2.41,289.93L3.85,282.75L4.33,281.42L5.3,281.84L5.78,283.32L7.22,293.03L7.71,292.33L8.19,292.38L8.67,291.3L10.6,284.31L11.08,285.28L11.56,285.18L12.04,285.98L13.97,291.15L14.45,293.88L15.41,294.22L15.89,293.24L16.38,292.27L16.86,292.72L17.34,293.63L17.82,293.51L18.3,292.27L19.27,289.16L19.75,284.21L23.6,228.8L24.08,229.95L26.49,250.7L26.97,252.59L27.45,253.86L27.94,250.78L31.31,223.1L31.79,225.62L32.75,229.57L33.23,235.78L37.09,269.36L37.57,270.98L38.53,268.39L39.01,264.74L40.94,248.6L41.42,243.33L42.87,234.62L43.35,233.54L44.31,230.95L44.79,228.74L47.2,230.86L47.68,227.31L50.57,203.57L51.06,199.76L51.54,197.92L52.02,199.18L52.5,200.51L52.98,205.13L53.46,207.32L53.95,214.38L58.28,253.95L58.76,255.1L59.24,255.28L59.73,252.53L61.17,247.64L61.65,244.34L63.58,233.07L64.06,233.72L65.51,225.55L65.99,226.85L67.91,218.85L68.4,217.23L69.84,205.49L70.32,205.25L71.29,201.92L71.77,195.9L72.73,193.9L73.21,190.66L76.58,210.56L77.07,214.94L78.03,219.15L78.51,221.15L78.99,224.31L79.47,223.43L79.96,224.7L80.44,224.6L80.92,226.87L81.88,229.85L82.36,229.64L82.85,230.46L83.33,232.76L83.81,235.78L84.29,234.06L84.77,229.95L86.7,224.31L87.18,219.6L88.63,214.27L89.11,216.3L89.59,216.68L90.07,211.29L91.52,201.18L92,198.87L92.48,198.17L92.96,192.19L94.89,174.55L95.37,173.7L95.85,172.73L96.33,168.51L96.81,167.94L97.3,169.71L100.19,186.47L100.67,186.14L101.63,187.33L102.11,186.54L104.04,181.43L104.52,184.83L105,184.27L105.48,178.44L108.86,198.99L109.34,207.66L110.3,209.49L110.78,205.43L113.19,189.71L113.67,180.89L115.12,169.89L115.6,162.01L116.56,151.99L117.04,145.37L117.53,147.02L118.01,145.73L118.49,147.3L118.97,152.37L119.45,157.76L119.93,155.14L120.42,156.34L120.9,170.96L121.38,162.84L121.86,162.82L122.34,163.86L122.82,157.7L124.27,168.52L124.75,162.81L125.71,174.47L126.19,174.94L127.64,183.51L128.12,186.97L128.6,185.24L129.08,188.99L131.01,199.38L131.49,198.44L133.9,177.76L134.38,169.36L134.86,165.57L135.35,169.8L135.83,166.41L136.31,169.54L136.79,170.38L137.27,178.85L138.72,198.76L139.2,197.41L139.68,197.59L140.16,195.15L140.64,193.14L141.13,185.39L141.61,185.86L142.09,178.46L142.57,179.37L143.05,173.51L144.5,148.53L144.98,147.85L146.91,119.42L147.39,128.93L150.28,185.79L150.76,199.18L151.24,211.34L151.72,208.87L152.2,209.05L152.69,206.34L153.17,198.56L154.13,204.82L154.61,180.8L156.06,170.71L156.54,170.66L157.02,170.36L157.5,167.54L157.98,167.12L158.47,190.66L158.95,191.19L159.43,193.73L160.87,202.27L161.36,205.82L161.84,206.03L162.32,202.57L163.28,196.34L163.76,202.18L164.25,202.18L164.73,189.99L166.17,154.3L166.65,156.2L168.1,130.29L168.58,140.33L171.95,202.6L172.43,201.18L172.92,201.44L173.4,199.2L174.36,184.06L174.84,184.76L176.77,162.6L177.25,164.48L177.73,169.91L178.7,153.38L179.18,155.3L179.66,157.77L183.03,190.13L183.51,187.61L186.4,161.43L186.88,160.35L188.81,171.16L189.29,171.46L190.74,192.49L191.22,192.72L192.18,199.38L192.66,198.98L193.15,208.38L193.63,194.69L194.11,194.88L194.59,196.99L195.07,199.32L195.55,197.12L196.52,198.69L197,188.68L197.48,193.43L197.96,188.06L200.85,145.89L201.33,140.61L203.74,127.89L204.22,131.73L204.71,134.49L205.19,152.56L207.11,168.29L207.6,169.73L208.08,173.83L208.56,172.58L209.04,163.51L210,162.88L210.49,172.63L210.97,174.44L211.45,183.42L211.93,186.6L212.41,195.92L214.34,212.64L214.82,212.47L215.3,212.03L215.78,216.22L216.75,219.21L217.23,224L218.19,235.13L218.67,234.36L219.16,234.58L220.6,235.63L221.08,232.46L222.53,218.5L223.01,219.5L223.49,210.43L226.38,160.67L226.86,147.44L228.79,129.62L229.27,138.19L229.75,136.66L230.23,141.46L231.2,141.42L231.68,136.16L232.16,133.66L232.64,135.75L234.09,126.64L234.57,128.75L235.53,132.11L236.01,139.17L236.5,139.84L236.98,149.62L238.42,178.49L238.9,188.64L241.31,230.97L241.79,236.61L243.72,244.43L244.2,244.61L245.17,241.14L245.65,237.38L248.06,219.34L248.54,214.01L250.94,193.44L251.43,193.07L252.39,184.26L252.87,193.02L254.32,171.14L254.8,167.1L256.72,123.45L257.21,123.62L258.17,116.95L258.65,107.21L259.61,106.61L260.1,104.38L260.58,106.46L261.06,114.57L262.02,128.67L262.5,139.96L266.36,219.99L266.84,222.88L268.28,236.8L268.77,236.06L269.73,233.03L270.21,229.7L271.17,221.06L271.66,223.59L273.1,200.07L273.58,196.68L276.47,170.68L276.95,169.53L277.92,161.96L278.4,146.65L279.84,115.84L280.33,101.67L282.25,45.05L282.73,39.74L283.22,39.44L283.7,47.31L284.18,41.57L284.66,52.05L286.11,106.55L286.59,122.14L290.92,234.1L291.4,237.13L291.89,239.73L292.37,236.83L292.85,239.26L293.33,236.57L296.22,200.96L296.7,191.42L299.11,166.38L299.59,167L300.56,175.1L301.04,174.16L301.52,176.03L302.48,169.35L302.96,175.75L304.89,87.31L305.37,64.49L306.82,16L307.3,43.81L307.78,45.15L308.26,64.75L314.04,204.08L314.52,208.54L315.01,212.02L315.49,209.07L315.97,209.4L316.45,208.77L318.38,192.59L318.86,184.13L320.3,171.93L320.79,170.47L322.71,137.68L323.19,131.27L325.12,53L325.6,61.69L326.57,24.32L327.05,18.07L328.01,43.73L328.49,24.37L328.97,17.73L329.46,19.92L329.94,38.35L331.86,73.05L332.35,136.73L333.79,186.19L334.27,195.51L337.64,224.5L338.13,223.89L339.57,232.81L340.05,227.9L341.5,215.59L341.98,214.93L344.39,164.23L344.87,158.43L345.83,136.16L346.31,138.19L346.8,138.8L347.28,128.39L347.76,130.34L348.24,126.53L348.72,123.78L349.2,133.25L350.17,136.87L350.65,143.58L352.09,157.36L352.58,161.57L353.06,162.51L353.54,167.36L354.98,177.49L355.47,176.35L356.91,166.74L357.39,154.8L358.84,138.84L359.32,145.17L362.21,170.34L362.69,170.05L363.17,167.27L363.65,170.24L365.1,144.38L365.58,146.29L366.06,145.74L366.54,134.29L367.51,115.76L367.99,126.34L368.47,129.27L368.95,138.35L371.84,177.19L372.32,183.15L372.81,180.51L373.29,167.03L374.25,171.98L374.73,171.49L375.21,170.8L375.69,171.27L376.18,166.05L376.66,167.61L377.14,175.07L378.58,163.47L379.07,169.82L380.51,118.31L380.99,111.44L382.44,100.72L382.92,81.72L384.36,127.28L384.85,134.57L386.29,148.4L386.77,166.02L387.74,161.78L388.22,156.45L390.63,133.25L391.11,137.04L393.52,195.09L394,199.52L394.96,213.43L395.44,208.04L396.89,217.91L397.37,213.63L398.81,225.28" style="vector-effect: non-scaling-stroke; fill: none; stroke: rgb(65, 105, 225); stroke-opacity: 1; stroke-width: 2px; opacity: 1;"/></g><g class="points"/><g class="text"/></g><g class="trace scatter trace18a3dd" style="stroke-miterlimit: 2; opacity: 1;"><g class="fills"/><g class="errorbars"/><g class="lines"><path class="js-line" d="M399.3,224.03L399.78,225.41L400.26,220.26L400.74,212.02L401.22,213.16L401.7,210.23L403.63,178.72L404.11,178.4L404.59,179.09L405.08,183.38L405.56,172.61L406.04,181.28L406.52,184.62L407,181.83L408.45,173.19L408.93,165.44L409.41,169.08L409.89,162.52L410.37,164.24L410.86,170.76L411.82,180.01L412.3,173.29L412.78,178.58L413.26,175.49L415.67,138.02L416.15,137.2L416.64,128.54L417.12,133.75L420.01,180.44L420.49,185.38L421.93,198.67L422.42,197.27L423.86,208.58L424.34,212.71L424.82,212.23L425.31,213.12L426.75,199.36L427.23,201.48L429.64,167.33L430.12,166.88L430.6,165.08L431.09,159.91L432.53,162.03L433.01,162.73L433.98,166.15L434.46,164.41L434.94,162.68L435.42,166.97L435.9,167.32L436.38,164.04L436.87,165.62L437.35,164.5L439.27,145.5L439.76,145.09L441.2,129.51L441.68,129.71L442.16,129.07L443.13,136.43L443.61,133.28L445.54,154L446.02,154.43L448.43,181.67L448.91,182.59L449.87,192.29L450.35,188.56L450.83,186.62L451.32,178.7L454.69,139.9L455.17,141.4L455.65,148.43L456.13,142.94L458.06,134.25L458.54,137.73L459.02,136.46L459.5,128.26L459.99,130.33L460.47,125.8L460.95,123.39L461.43,123.89L461.91,128.61L463.36,120.29L463.84,121.99L464.32,120.77L464.8,129.43L467.69,164.07L468.17,176.83L469.14,181.67L469.62,188.93L471.55,213.48L472.03,216.09L472.51,215.46L472.99,210.69L475.4,187.77L475.88,178.18L476.36,180.09L476.84,175.04L477.33,181.11L477.81,177.39L478.29,179.84L478.77,178.19L479.25,179.21L479.73,186.03L480.22,189.76L480.7,199.51L481.18,199.56L481.66,204.56L482.14,202.14L482.62,210.8L483.11,209.07L483.59,210.29L484.07,204.85L484.55,207.44L485.03,202.91L487.44,212.63L487.92,203.11L488.4,204.05L488.89,201.76L491.29,96.34L491.78,105.75L493.22,71.96L493.7,96.44L495.15,131.09L495.63,130.02L496.11,129.53L497.07,161.9L497.56,160.7L498.04,161.26L498.52,166.59L499,160.87" style="vector-effect: non-scaling-stroke; fill: none; stroke: rgb(65, 105, 225); stroke-opacity: 1; stroke-width: 2px; opacity: 1;"/></g><g class="points"/><g class="text"/></g><g class="trace scatter trace87e987" style="stroke-miterlimit: 2; opacity: 1;"><g class="fills"/><g class="errorbars"/><g class="lines"><path class="js-line" d="M0,281.51L3.85,268.59L4.33,267.9L5.78,267.3L6.26,267.58L7.71,269.64L8.19,270.66L13.97,284.35L14.45,284.43L14.93,285.13L15.41,284.43L16.86,282.51L17.34,281.43L19.75,272.78L20.23,270.58L26.01,245.52L26.49,244.52L27.94,242.73L28.42,242.55L29.86,243.63L30.34,244.38L32.75,250.26L33.23,251.65L36.61,259.55L37.09,260.07L38.53,260.33L39.01,259.93L40.46,257.28L40.94,255.93L43.83,244.17L44.31,241.84L48.65,223.53L49.13,222.28L51.06,219.7L51.54,219.73L52.98,221.04L53.46,221.88L55.87,227.83L56.35,229.56L61.65,243.82L62.13,243.83L63.1,242.91L63.58,241.64L65.02,234.21L65.51,230.37L69.36,200.51L69.84,198.24L72.25,191.03L72.73,190.31L73.69,190.64L74.18,191.34L75.62,195.62L76.1,197.55L78.51,209.88L78.99,212.04L81.4,223.9L81.88,224.54L82.85,223.77L83.33,222.79L84.77,220.3L85.25,218.88L87.18,210.24L87.66,206.88L92.48,186.68L92.96,183.99L95.37,174.85L95.85,174.08L96.33,173.21L96.81,173.67L97.3,174.04L98.74,177.61L99.22,179.51L100.67,189.09L101.15,192.86L103.08,199.44L103.56,200.57L104.04,200.59L104.52,202.71L105,203.31L105.48,201.63L105.97,200.13L106.45,202.8L106.93,202.94L107.41,207.34L108.37,205.04L108.86,207.75L109.82,208.09L110.3,207.46L111.26,207.08L111.75,207.04L113.19,204.07L113.67,200.86L118.01,164.13L118.49,162.32L119.93,159.67L120.42,159.59L121.86,161.04L122.34,162.06L123.79,166.33L124.27,168L126.68,177.01L127.16,177.97L130.53,190.06L131.01,190.64L132.46,191.68L132.94,191.21L133.9,189.19L134.38,184.56L135.35,180.61L135.83,177.07L137.75,167.58L138.24,175.48L141.61,164.33L142.09,162.85L143.53,152.95L144.02,155.59L147.39,145.23L147.87,145.21L148.35,145.36L148.83,146.74L149.31,145.74L149.8,146.37L150.28,150.45L152.2,177.71L152.69,180L154.13,185.87L154.61,186.92L155.58,187.8L156.06,187.6L157.5,184.91L157.98,183.11L158.47,182.84L158.95,177.73L159.43,178.66L159.91,175.64L160.87,176.51L161.36,176.24L162.32,174.14L162.8,173.41L163.76,173.4L164.25,171.85L167.14,154.63L167.62,153.99L169.06,146.44L169.54,148.05L170.51,147.38L170.99,147.87L171.47,149.33L171.95,153.36L173.88,169.65L174.36,170.57L177.25,184.35L177.73,184.01L178.7,182.56L179.18,181.07L183.51,164.3L183.99,164.41L187.85,153.33L188.33,153.31L189.29,153.6L189.77,156.02L191.22,166.44L191.7,171.75L193.15,178.15L193.63,176.41L194.59,181.83L195.07,178.67L196.04,185.15L196.52,185.3L197,185.75L197.48,183.14L199.89,172.34L200.37,169.62L201.33,164.1L201.82,166.33L202.3,154.53L202.78,157.09L203.26,154.68L203.74,152.58L204.22,153.59L204.71,155.96L205.19,156.73L205.67,159.7L206.15,159.82L206.63,162.28L207.6,166.38L208.08,170.64L208.56,173.96L209.04,172.15L209.52,175.34L211.45,180.8L211.93,180.27L212.89,179.06L213.38,180.22L214.34,178.8L214.82,182.01L215.3,179.77L215.78,180.07L216.27,181.18L217.23,182.54L217.71,180.06L218.19,179.18L218.67,181.55L219.16,182.12L219.64,187.93L220.12,182.28L220.6,184.94L221.08,180.49L221.56,185.59L222.05,181.42L223.49,172.81L223.97,174.08L224.45,163.95L224.94,165.34L225.42,160.74L225.9,155.17L226.38,189.29L227.34,161.95L227.83,159.99L229.75,146.96L230.23,145.83L231.68,144.14L232.16,144.53L234.09,147.61L234.57,150.35L235.53,154.59L236.01,156.87L238.42,171.51L238.9,184.72L241.31,204.54L241.79,204.13L242.76,213.59L243.24,214.03L244.2,214.75L244.68,214.04L245.17,211.7L245.65,212.95L246.13,211.68L246.61,209.2L247.09,181.6L248.54,225.35L249.02,221.06L249.98,210.27L250.46,210.89L250.94,207.68L251.43,204.2L251.91,193.05L254.32,158.17L254.8,156.41L257.69,133.41L258.17,131.73L259.61,127.36L260.1,126.9L261.06,127.17L261.54,125.85L265.39,178.24L265.88,198.68L266.36,201.39L266.84,223.57L267.32,218.06L267.8,220.48L268.28,232.58L268.77,222.82L269.25,238.32L269.73,235.59L270.21,237.24L270.69,239.35L271.17,239.22L271.66,239.15L272.14,237.57L272.62,232.47L274.06,201.35L274.55,204.09L275.51,174.43L275.99,183.37L276.95,181.26L277.44,173.31L279.84,130.75L280.33,129.81L281.29,116.87L281.77,109.03L282.73,100.23L283.22,104.29L284.18,98.04L284.66,99.24L285.62,109.47L286.11,118.76L287.07,127.06L287.55,143.84L288.51,192.43L289,191.81L289.48,212.14L289.96,220.93L290.44,194.27L293.33,242.18L293.81,245.48L294.78,247.6L295.26,247.9L296.22,242.39L296.7,237.79L298.15,213.65L298.63,189.21L299.59,180.41L300.07,146.45L300.56,152.17L301.04,142.19L302,123.5L302.48,124.51L303.45,108.35L303.93,111.44L304.89,86.48L305.37,90.08L305.85,86.26L306.82,83.58L307.3,83.22L307.78,83.08L308.26,93.65L308.74,89.76L309.23,95.91L312.12,156.31L312.6,172.91L313.08,174.97L313.56,181.23L315.01,232.67L315.49,238.65L315.97,219.37L316.45,229.1L316.93,232.57L317.41,232.42L317.9,231.03L318.38,236.03L318.86,234.74L319.34,231.81L319.82,229.52L320.3,219.69L320.79,212.81L321.27,218.07L322.71,175.63L323.19,164.9L324.16,135.88L324.64,89.21L325.12,102.2L325.6,93.3L326.08,90.46L326.57,81.9L328.01,72.17L328.49,71.56L329.46,72.28L329.94,75.91L331.38,94.57L331.86,103.71L337.64,227.04L338.13,231.39L339.09,235.91L339.57,235.69L340.53,230.42L341.02,225.55L343.42,188.62L343.91,168.21L344.87,157.21L345.35,131.77L345.83,127.41L346.31,114.6L348.72,72.73L349.2,68.01L349.69,68.59L350.17,70.9L350.65,75.67L351.13,88.07L352.09,100.15L352.58,120.88L357.39,211.17L357.87,209.08L360.76,193.2L361.25,186.62L361.73,182.92L362.21,172.55L363.17,161L363.65,163.86L365.1,124.15L365.58,118.24L367.03,102.32L367.51,94.94L368.95,85.61L369.43,91.92L370.4,89.24L370.88,92.25L371.36,95.11L371.84,102.53L372.32,112.64L372.81,100.82L373.29,94.97L373.77,97.52L374.25,98.17L375.21,104.49L375.69,100.73L376.66,123.36L377.14,115.57L378.1,182.38L378.58,174.08L379.07,179.56L379.55,170.75L380.99,151.1L381.47,143.37L383.4,116.99L383.88,114.6L384.36,115.4L384.85,108.34L385.33,112.41L385.81,107.95L386.77,111.47L387.25,118.27L389.18,144.01L389.66,143.44L390.63,147.21L391.11,146.3L393.52,169.72L394,172.39L394.96,176.43L395.44,177.69L395.92,178.32L396.41,177.61L397.37,177.28L397.85,175.75L398.81,175.83" style="vector-effect: non-scaling-stroke; fill: none; stroke: rgb(0, 204, 150); stroke-opacity: 1; stroke-width: 2px; opacity: 1;"/></g><g class="points"/><g class="text"/></g><g class="trace scatter tracecb4da6" style="stroke-miterlimit: 2; opacity: 1;"><g class="fills"/><g class="errorbars"/><g class="lines"><path class="js-line" d="M399.3,177.31L400.26,180.42L400.74,178.02L401.7,173.74L402.19,177.33L406.52,153.87L407,152.04L407.48,154.34L407.97,152.52L408.93,151.55L409.41,150.74L411.82,151.5L412.3,151.58L413.75,153.49L414.23,154.84L415.67,159.58L416.15,156.38L417.12,159.24L417.6,153.19L418.08,153.07L418.56,154.2L421.45,170.32L421.93,171.78L424.82,179.02L425.31,182.26L425.79,191.57L426.27,189.24L426.75,189.2L429.64,183.72L430.12,182.1L430.6,180.64L431.09,176.28L432.05,168.35L432.53,173.72L433.49,170.76L433.98,168.34L434.94,157.51L435.42,155.91L437.83,149.43L438.31,148.91L438.79,149.45L439.27,151.17L440.24,151.11L440.72,151.02L442.16,146.83L442.65,147.75L445.05,161.95L445.54,165.28L447.46,174.5L447.94,172.28L448.91,163.51L449.39,162.52L453.72,182.09L454.21,180.18L455.17,186.57L455.65,180.18L456.61,175.51L457.1,176.32L458.54,180.76L459.02,180.68L460.47,176.53L460.95,173.27L461.43,161.3L461.91,172.37L463.36,131.62L463.84,130.89L465.28,131.3L465.77,132.01L466.25,131.96L466.73,132.72L468.17,138.56L468.66,145.23L470.1,151.04L470.58,152.7L473.47,173.26L473.95,172.94L474.44,163.19L474.92,181.78L475.88,156.11L476.36,173.66L479.25,193.92L479.73,193.18L480.22,195.35L480.7,190.46L481.18,193.58L482.14,192L482.62,196.1L483.11,195.42L483.59,185.2L484.55,164.72L485.03,179.61L486,168.05L486.48,175.52L487.44,178.65L487.92,180.16L488.4,189.16L488.89,184.78L489.37,179.52L490.33,171.43L490.81,178.66L491.29,172.56L491.78,154.54L493.22,134.95L493.7,111.46L495.63,152.14L496.11,164.03L496.59,152.26L497.07,160.94L498.04,108.29L498.52,108.28L499,119.28" style="vector-effect: non-scaling-stroke; fill: none; stroke: rgb(239, 85, 59); stroke-opacity: 1; stroke-width: 2px; opacity: 1;"/></g><g class="points"/><g class="text"/></g></g></g><g class="overplot"/><path class="xlines-above crisp" d="M0,0" style="fill: none;"/><path class="ylines-above crisp" d="M0,0" style="fill: none;"/><g class="overlines-above"/><g class="xaxislayer-above"><g class="xtick"><text text-anchor="middle" x="0" y="433" transform="translate(154.18,0)" style="font-family: 'Open Sans', verdana, arial, sans-serif; font-size: 12px; fill: rgb(42, 63, 95); fill-opacity: 1; white-space: pre;">Jan 2018</text></g><g class="xtick"><text text-anchor="middle" x="0" y="433" transform="translate(241.36,0)" style="font-family: 'Open Sans', verdana, arial, sans-serif; font-size: 12px; fill: rgb(42, 63, 95); fill-opacity: 1; white-space: pre;">Jul 2018</text></g><g class="xtick"><text text-anchor="middle" x="0" y="433" transform="translate(329.98,0)" style="font-family: 'Open Sans', verdana, arial, sans-serif; font-size: 12px; fill: rgb(42, 63, 95); fill-opacity: 1; white-space: pre;">Jan 2019</text></g><g class="xtick"><text text-anchor="middle" x="0" y="433" transform="translate(417.16,0)" style="font-family: 'Open Sans', verdana, arial, sans-serif; font-size: 12px; fill: rgb(42, 63, 95); fill-opacity: 1; white-space: pre;">Jul 2019</text></g><g class="xtick"><text text-anchor="middle" x="0" y="433" transform="translate(505.79,0)" style="font-family: 'Open Sans', verdana, arial, sans-serif; font-size: 12px; fill: rgb(42, 63, 95); fill-opacity: 1; white-space: pre;">Jan 2020</text></g></g><g class="yaxislayer-above"><g class="ytick"><text text-anchor="end" x="79" y="4.199999999999999" transform="translate(0,404)" style="font-family: 'Open Sans', verdana, arial, sans-serif; font-size: 12px; fill: rgb(42, 63, 95); fill-opacity: 1; white-space: pre;">0</text></g><g class="ytick"><text text-anchor="end" x="79" y="4.199999999999999" transform="translate(0,346.4)" style="font-family: 'Open Sans', verdana, arial, sans-serif; font-size: 12px; fill: rgb(42, 63, 95); fill-opacity: 1; white-space: pre;">0.2</text></g><g class="ytick"><text text-anchor="end" x="79" y="4.199999999999999" transform="translate(0,288.8)" style="font-family: 'Open Sans', verdana, arial, sans-serif; font-size: 12px; fill: rgb(42, 63, 95); fill-opacity: 1; white-space: pre;">0.4</text></g><g class="ytick"><text text-anchor="end" x="79" y="4.199999999999999" transform="translate(0,231.2)" style="font-family: 'Open Sans', verdana, arial, sans-serif; font-size: 12px; fill: rgb(42, 63, 95); fill-opacity: 1; white-space: pre;">0.6</text></g><g class="ytick"><text text-anchor="end" x="79" y="4.199999999999999" transform="translate(0,173.6)" style="font-family: 'Open Sans', verdana, arial, sans-serif; font-size: 12px; fill: rgb(42, 63, 95); fill-opacity: 1; white-space: pre;">0.8</text></g><g class="ytick"><text text-anchor="end" x="79" y="4.199999999999999" transform="translate(0,116)" style="font-family: 'Open Sans', verdana, arial, sans-serif; font-size: 12px; fill: rgb(42, 63, 95); fill-opacity: 1; white-space: pre;">1</text></g></g><g class="overaxes-above"/></g></g><g class="polarlayer"/><g class="ternarylayer"/><g class="geolayer"/><g class="funnelarealayer"/><g class="pielayer"/><g class="treemaplayer"/><g class="sunburstlayer"/><g class="glimages"/><defs id="topdefs-619e1d"><g class="clips"/><clipPath id="legend619e1d"><rect width="99" height="102" x="0" y="0"/></clipPath></defs><g class="layer-above"><g class="imagelayer"/><g class="shapelayer"/></g><g class="infolayer"><g class="legend" pointer-events="all" transform="translate(588.98,100)"><rect class="bg" shape-rendering="crispEdges" width="99" height="102" x="0" y="0" style="stroke: rgb(68, 68, 68); stroke-opacity: 1; fill: rgb(255, 255, 255); fill-opacity: 1; stroke-width: 0px;"/><g class="scrollbox" transform="" clip-path="url('#legend619e1d')"><text class="legendtitletext" text-anchor="start" x="2" y="15.600000000000001" style="font-family: 'Open Sans', verdana, arial, sans-serif; font-size: 12px; fill: rgb(42, 63, 95); fill-opacity: 1; white-space: pre;">variable</text><g class="groups" transform=""><g class="traces" transform="translate(0,30.1)" style="opacity: 1;"><text class="legendtext" text-anchor="start" x="40" y="4.680000000000001" style="font-family: 'Open Sans', verdana, arial, sans-serif; font-size: 12px; fill: rgb(42, 63, 95); fill-opacity: 1; white-space: pre;">y_train</text><g class="layers" style="opacity: 1;"><g class="legendfill"/><g class="legendlines"><path class="js-line" d="M5,0h30" style="fill: none; stroke: rgb(65, 105, 225); stroke-opacity: 1; stroke-width: 2px;"/></g><g class="legendsymbols"><g class="legendpoints"/></g></g><rect class="legendtoggle" x="0" y="-9.5" width="93.703125" height="19" style="fill: rgb(0, 0, 0); fill-opacity: 0;"/></g></g><g class="groups" transform=""><g class="traces" transform="translate(0,49.1)" style="opacity: 1;"><text class="legendtext" text-anchor="start" x="40" y="4.680000000000001" style="font-family: 'Open Sans', verdana, arial, sans-serif; font-size: 12px; fill: rgb(42, 63, 95); fill-opacity: 1; white-space: pre;">y_test</text><g class="layers" style="opacity: 1;"><g class="legendfill"/><g class="legendlines"><path class="js-line" d="M5,0h30" style="fill: none; stroke: rgb(65, 105, 225); stroke-opacity: 1; stroke-width: 2px;"/></g><g class="legendsymbols"><g class="legendpoints"/></g></g><rect class="legendtoggle" x="0" y="-9.5" width="93.703125" height="19" style="fill: rgb(0, 0, 0); fill-opacity: 0;"/></g></g><g class="groups" transform=""><g class="traces" transform="translate(0,68.1)" style="opacity: 1;"><text class="legendtext" text-anchor="start" x="40" y="4.680000000000001" style="font-family: 'Open Sans', verdana, arial, sans-serif; font-size: 12px; fill: rgb(42, 63, 95); fill-opacity: 1; white-space: pre;">est_train</text><g class="layers" style="opacity: 1;"><g class="legendfill"/><g class="legendlines"><path class="js-line" d="M5,0h30" style="fill: none; stroke: rgb(0, 204, 150); stroke-opacity: 1; stroke-width: 2px;"/></g><g class="legendsymbols"><g class="legendpoints"/></g></g><rect class="legendtoggle" x="0" y="-9.5" width="93.703125" height="19" style="fill: rgb(0, 0, 0); fill-opacity: 0;"/></g></g><g class="groups" transform=""><g class="traces" transform="translate(0,87.1)" style="opacity: 1;"><text class="legendtext" text-anchor="start" x="40" y="4.680000000000001" style="font-family: 'Open Sans', verdana, arial, sans-serif; font-size: 12px; fill: rgb(42, 63, 95); fill-opacity: 1; white-space: pre;">est_test</text><g class="layers" style="opacity: 1;"><g class="legendfill"/><g class="legendlines"><path class="js-line" d="M5,0h30" style="fill: none; stroke: rgb(239, 85, 59); stroke-opacity: 1; stroke-width: 2px;"/></g><g class="legendsymbols"><g class="legendpoints"/></g></g><rect class="legendtoggle" x="0" y="-9.5" width="93.703125" height="19" style="fill: rgb(0, 0, 0); fill-opacity: 0;"/></g></g></g><rect class="scrollbar" rx="20" ry="3" width="0" height="0" x="0" y="0" style="fill: rgb(128, 139, 164); fill-opacity: 1;"/></g><g class="g-gtitle"><text class="gtitle" x="35" y="50" text-anchor="start" dy="0em" style="font-family: 'Open Sans', verdana, arial, sans-serif; font-size: 17px; fill: rgb(42, 63, 95); opacity: 1; font-weight: normal; white-space: pre;">Prediction Visualization</text></g><g class="g-xtitle"><text class="xtitle" x="329.5" y="460.3" text-anchor="middle" style="font-family: 'Open Sans', verdana, arial, sans-serif; font-size: 14px; fill: rgb(42, 63, 95); opacity: 1; font-weight: normal; white-space: pre;">date</text></g><g class="g-ytitle"><text class="ytitle" transform="rotate(-90,34.575,260)" x="34.575" y="260" text-anchor="middle" style="font-family: 'Open Sans', verdana, arial, sans-serif; font-size: 14px; fill: rgb(42, 63, 95); opacity: 1; font-weight: normal; white-space: pre;">value</text></g></g></svg>