<svg class="main-svg" xmlns="http://www.w3.org/2000/svg" xmlns:xlink="http://www.w3.org/1999/xlink" width="700" height="500" style="" viewBox="0 0 700 500"><rect x="0" y="0" width="700" height="500" style="fill: rgb(255, 255, 255); fill-opacity: 1;"/><defs id="defs-d99813"><g class="clips"><clipPath id="clipd99813xyplot" class="plotclip"><rect width="510" height="320"/></clipPath><clipPath class="axesclip" id="clipd99813x"><rect x="80" y="0" width="510" height="500"/></clipPath><clipPath class="axesclip" id="clipd99813y"><rect x="0" y="100" width="700" height="320"/></clipPath><clipPath class="axesclip" id="clipd99813xy"><rect x="80" y="100" width="510" height="320"/></clipPath></g><g class="gradients"/></defs><g class="bglayer"><rect class="bg" x="80" y="100" width="510" height="320" style="fill: rgb(229, 236, 246); fill-opacity: 1; stroke-width: 0;"/></g><g class="layer-below"><g class="imagelayer"/><g class="shapelayer"/></g><g class="cartesianlayer"><g class="subplot xy"><g class="layer-subplot"><g class="shapelayer"/><g class="imagelayer"/></g><g class="gridlayer"><g class="x"><path class="xgrid crisp" transform="translate(174.86,0)" d="M0,100v320" style="stroke: rgb(255, 255, 255); stroke-opacity: 1; stroke-width: 1px;"/><path class="xgrid crisp" transform="translate(286.34000000000003,0)" d="M0,100v320" style="stroke: rgb(255, 255, 255); stroke-opacity: 1; stroke-width: 1px;"/><path class="xgrid crisp" transform="translate(399.67,0)" d="M0,100v320" style="stroke: rgb(255, 255, 255); stroke-opacity: 1; stroke-width: 1px;"/><path class="xgrid crisp" transform="translate(511.16,0)" d="M0,100v320" style="stroke: rgb(255, 255, 255); stroke-opacity: 1; stroke-width: 1px;"/></g><g class="y"><path class="ygrid crisp" transform="translate(0,346.28999999999996)" d="M80,0h510" style="stroke: rgb(255, 255, 255); stroke-opacity: 1; stroke-width: 1px;"/><path class="ygrid crisp" transform="translate(0,288.72)" d="M80,0h510" style="stroke: rgb(255, 255, 255); stroke-opacity: 1; stroke-width: 1px;"/><path class="ygrid crisp" transform="translate(0,231.14)" d="M80,0h510" style="stroke: rgb(255, 255, 255); stroke-opacity: 1; stroke-width: 1px;"/><path class="ygrid crisp" transform="translate(0,173.57)" d="M80,0h510" style="stroke: rgb(255, 255, 255); stroke-opacity: 1; stroke-width: 1px;"/><path class="ygrid crisp" transform="translate(0,116)" d="M80,0h510" style="stroke: rgb(255, 255, 255); stroke-opacity: 1; stroke-width: 1px;"/></g></g><g class="zerolinelayer"><path class="yzl zl crisp" transform="translate(0,403.86)" d="M80,0h510" style="stroke: rgb(255, 255, 255); stroke-opacity: 1; stroke-width: 2px;"/></g><path class="xlines-below"/><path class="ylines-below"/><g class="overlines-below"/><g class="xaxislayer-below"/><g class="yaxislayer-below"/><g class="overaxes-below"/><g class="plot" transform="translate(80,100)" clip-path="url('#clipd99813xyplot')"><g class="scatterlayer mlayer"><g class="trace scatter traceda72a5" style="stroke-miterlimit: 2; opacity: 1;"><g class="fills"/><g class="errorbars"/><g class="lines"><path class="js-line" d="M0,303.07L0.62,303.86L1.23,301.56L2.46,295.95L3.08,289.8L4.93,282.62L5.54,281.3L6.78,281.71L7.39,283.19L9.24,292.9L9.86,292.2L10.47,292.25L11.09,291.17L13.55,284.18L14.17,285.15L14.78,285.05L15.4,285.85L17.86,291.02L18.48,293.75L19.71,294.09L20.33,293.1L20.94,292.14L21.56,292.58L22.79,293.38L23.41,292.14L24.64,289.03L25.25,284.08L30.18,228.7L30.8,229.85L33.26,246.21L33.88,250.59L35.11,253.75L35.72,250.67L40.04,223L40.65,225.52L41.27,226.64L41.88,229.46L45.58,261.63L46.2,264.83L48.04,270.85L48.66,270.08L49.89,264.62L50.51,257.99L52.36,248.49L52.97,243.22L54.82,234.52L55.43,233.43L56.67,230.85L57.28,228.64L59.13,230.41L59.75,229.84L60.36,230.76L60.98,227.21L63.44,212.04L64.06,206.52L65.91,197.83L66.52,199.09L67.14,200.42L67.75,205.04L68.37,207.23L68.99,214.28L74.53,253.84L75.14,254.99L75.76,255.17L76.38,252.42L78.22,247.53L78.84,244.23L81.3,232.96L81.92,233.62L82.54,228.87L83.15,229.61L83.77,225.45L84.38,226.75L85,223.5L87.46,217.13L88.08,210.7L88.7,213.27L89.31,205.39L89.93,205.16L90.54,203.63L91.16,201.83L91.78,195.81L93.01,193.81L93.62,190.58L95.47,195.99L96.09,198.14L99.17,216.18L99.78,219.05L101.01,224.21L101.63,223.33L103.48,226.77L104.09,229.28L105.94,230.35L106.56,232.66L107.17,235.67L107.79,233.95L109.64,226L110.25,225.26L110.87,224.21L111.49,219.5L112.72,215.43L113.33,214.18L114.57,216.58L115.18,211.2L115.8,204.74L116.41,205.31L117.03,201.09L118.26,198.08L118.88,192.1L121.34,174.47L121.96,173.62L122.57,172.65L123.19,168.43L123.8,167.87L124.42,169.64L127.5,185.06L128.12,186.39L128.73,186.06L129.35,186.79L129.96,187.25L130.58,186.45L133.04,181.35L133.66,184.75L134.28,184.18L134.89,178.37L139.2,198.9L139.82,207.57L141.05,209.4L141.67,205.34L144.75,189.63L145.36,180.81L147.21,169.82L147.83,161.94L149.06,151.92L149.67,145.31L150.29,146.96L150.91,145.66L151.52,147.24L152.14,152.3L152.75,157.69L153.37,155.08L153.99,156.28L154.6,170.88L155.83,162.75L156.45,163.79L157.07,157.63L157.68,160.61L158.3,162.26L158.91,168.45L159.53,162.74L160.14,172.63L162.61,179.43L163.22,183.43L163.84,186.89L164.46,185.16L166.92,199.03L167.54,199.29L168.15,198.35L168.77,194.66L170,190.31L170.62,183.16L172.46,165.5L173.08,169.73L173.7,166.34L174.31,169.47L174.93,170.31L175.54,178.77L177.39,198.67L178.01,197.32L178.62,197.5L179.24,195.06L179.86,193.05L180.47,185.31L181.09,185.78L181.7,178.38L182.32,179.29L182.93,173.44L184.78,148.47L185.4,147.79L187.86,119.37L188.48,128.87L192.17,185.7L192.79,199.09L193.41,211.25L194.02,208.78L194.64,208.96L195.25,206.24L195.87,198.47L197.1,204.73L197.72,180.72L199.57,170.63L200.18,170.58L200.8,170.29L201.41,167.47L202.03,167.05L202.64,190.58L203.26,191.1L203.88,193.64L205.72,202.18L206.34,205.73L206.96,205.94L207.57,202.48L208.8,196.25L209.42,202.09L210.04,202.09L210.65,189.91L212.5,154.23L213.12,156.13L214.96,130.23L215.58,140.27L219.89,202.51L220.51,201.09L221.12,201.35L221.74,199.11L222.97,183.98L223.59,184.68L225.43,170L226.05,162.53L226.67,164.41L227.28,169.84L228.51,153.32L229.13,155.23L230.36,162.99L230.98,170.29L231.59,169.88L232.21,175.33L233.44,189.5L234.06,190.04L235.29,182.29L235.91,178.76L238.99,160.28L239.6,163.69L241.45,171.09L242.07,171.39L243.91,192.41L244.53,192.64L245.76,199.29L246.38,198.89L246.99,208.29L247.61,194.6L248.22,194.79L248.84,196.91L249.46,199.23L250.07,197.03L251.3,198.6L251.92,188.6L252.54,193.34L253.15,187.98L256.23,152.5L256.85,145.83L258.08,138.04L258.7,138.79L260.54,127.84L261.16,131.68L261.78,134.44L262.39,152.49L263.62,163.39L264.24,162.28L266.09,173.75L266.7,172.5L267.93,163.4L268.55,162.81L270.4,183.34L271.01,186.52L272.86,206.09L273.48,208.02L274.09,212.55L274.71,212.38L275.33,211.93L276.56,217.42L277.17,219.11L279.02,235.03L279.64,234.25L280.25,234.48L280.87,235.01L281.49,234.53L282.1,235.53L282.72,232.35L283.33,228.97L283.95,220.96L284.57,218.4L285.18,219.4L287.03,196.16L287.64,194.73L289.49,160.6L290.11,147.38L290.72,141.46L291.34,142.65L291.96,137.35L292.57,129.57L293.19,138.13L293.8,136.6L294.42,141.4L295.65,141.36L296.27,136.1L296.88,133.61L297.5,135.69L298.12,130.23L298.73,132.96L299.35,126.59L299.96,128.7L301.2,132.06L301.81,139.11L302.43,139.78L303.04,149.55L304.28,168.32L304.89,178.41L308.59,230.87L309.2,236.5L311.05,242.56L311.67,244.32L312.28,244.5L312.9,243.03L314.13,237.27L314.75,234.15L315.98,227.89L316.59,224.15L320.91,193.36L321.52,192.99L322.75,184.17L323.37,192.94L324.6,175.33L325.22,171.07L325.83,167.03L326.45,153.29L327.68,142.15L328.3,123.4L328.91,123.57L329.53,120.83L330.14,116.9L330.76,107.16L331.99,106.56L332.61,104.34L333.22,106.41L333.84,114.53L335.07,128.62L335.69,139.9L339.38,205.07L340,211.47L341.85,229.06L342.46,231.12L343.08,236.69L343.7,235.96L344.31,235.12L346.16,227.13L346.78,220.96L347.39,223.49L348.01,207.87L348.62,206.56L349.24,199.98L351.7,185.2L352.32,174.14L352.93,175.67L353.55,170.61L354.17,169.46L354.78,164.39L355.4,161.89L356.01,146.59L357.86,115.79L358.48,101.63L360.94,45.04L361.56,39.73L362.17,39.43L362.79,47.29L363.41,41.56L364.02,52.04L365.87,106.5L366.49,122.09L368.33,170.84L368.95,185.74L371.41,221.62L372.03,234L373.26,239.62L373.88,236.72L374.49,239.16L375.11,236.47L378.19,208.97L378.8,200.87L380.65,180.83L381.27,175.79L382.5,166.3L383.12,166.93L384.35,175.03L384.96,174.09L385.58,175.96L386.2,171.34L386.81,169.27L387.43,175.67L389.28,107L389.89,87.27L391.12,49.18L391.74,52.99L392.36,16L392.97,43.79L393.59,45.13L394.2,64.73L396.05,108.86L396.67,106.69L397.28,136.4L397.9,141.25L398.51,153.17L399.75,172.7L400.36,188.56L402.83,211.93L403.44,208.98L404.06,209.31L404.67,208.67L407.14,192.5L407.75,184.05L408.37,177.1L408.99,177.43L409.6,171.85L410.22,170.4L410.83,158.56L412.68,137.63L413.3,131.21L415.76,52.99L416.38,61.67L417.61,24.32L418.22,18.07L419.46,43.71L420.07,24.37L420.69,17.72L421.3,19.92L423.77,71.06L424.38,73.02L425.62,163.09L426.23,164.18L427.46,195.42L428.08,199.18L429.31,208.38L429.93,212.46L431.78,224.4L432.39,223.79L433.62,231.38L434.24,232.7L436.7,215.49L437.32,214.83L439.78,169.62L440.4,164.15L441.01,158.36L441.63,143.16L442.25,136.11L442.86,138.13L443.48,138.74L444.09,128.33L444.71,130.28L445.33,126.47L445.94,123.73L446.56,133.19L447.79,136.81L448.41,143.52L449.02,151.89L449.64,151.53L450.25,157.29L452.72,171.27L453.33,172.66L453.95,177.41L454.57,176.27L456.41,166.67L457.03,154.73L458.88,138.78L459.49,145.1L461.96,166.97L462.57,164.48L463.19,170.27L463.8,169.97L464.42,167.2L465.04,170.16L465.65,153.76L466.88,144.32L467.5,146.23L468.12,145.68L468.73,134.23L469.96,115.71L470.58,126.29L471.2,129.21L471.81,138.29L474.89,172.41L475.51,177.11L476.12,183.07L476.74,180.43L477.36,166.95L477.97,169.61L478.59,171.91L479.82,170.73L480.43,171.2L481.05,165.98L481.67,167.54L482.28,174.99L482.9,171.26L483.51,169.03L484.13,163.4L484.75,169.75L485.36,144.71L487.83,107.41L488.44,102.57L489.06,100.68L489.67,81.69L490.91,115.82L491.52,127.22L493.99,148.34L494.6,165.95L495.83,161.71L496.45,156.38L498.3,139.77L498.91,140.2L499.53,133.19L500.14,136.99L503.22,195L503.84,199.43L505.07,213.33L505.69,207.94L506.3,211.45L506.92,210.52L507.54,217.81L508.15,213.53L510,225.18" style="vector-effect: non-scaling-stroke; fill: none; stroke: rgb(99, 110, 250); stroke-opacity: 1; stroke-width: 2px; opacity: 1;"/></g><g class="points"/><g class="text"/></g><g class="trace scatter trace8e3b2c" style="stroke-miterlimit: 2; opacity: 1;"><g class="fills"/><g class="errorbars"/><g class="lines"><path class="js-line" d="M0,76.39L74.53,76.37L75.14,75.19L77.61,69.93L78.22,69.17L82.54,64.49L83.15,62.83L85.62,57.99L86.23,57.92L89.31,59.78L89.93,60.28L95.47,65.61L96.09,66.93L98.55,76.51L99.17,79.44L101.01,86.41L101.63,86.74L102.25,85.8L102.86,83.24L105.33,69.65L105.94,69.59L108.41,71.79L109.02,71.09L110.25,70.27L110.87,70.66L113.33,71.82L113.95,71.51L114.57,71.32L115.18,69.42L117.64,59.37L118.26,58.18L120.11,56.55L120.72,56.27L123.8,55.39L124.42,54.44L127.5,49.3L128.12,47.48L129.96,44.4L130.58,44.24L131.2,44.53L131.81,45.78L134.89,55L135.51,57.11L137.36,61.2L137.97,61.57L138.59,61.61L139.2,60.67L144.13,44.7L144.75,45.24L149.67,66.69L150.29,67.93L151.52,69.16L152.14,69.12L153.99,68.67L154.6,69.59L157.68,69.27L158.3,69.12L161.38,68.24L161.99,67.99L165.07,66.73L165.69,66.74L170.62,67.18L171.23,67.52L173.08,68.83L173.7,68.26L175.54,65.64L176.16,67.8L182.93,153.89L183.55,157.55L184.78,162.1L185.4,162.44L187.86,155.51L188.48,152.1L190.33,144.96L190.94,145.97L191.56,148.24L192.17,153.96L194.64,202.29L195.25,204.28L197.72,203.29L198.33,204.02L202.03,209.2L202.64,209.16L203.88,210.71L204.49,212.7L208.19,227.92L208.8,225.86L213.12,214.41L213.73,214.68L216.2,211.47L216.81,213.78L218.04,224.04L218.66,234.69L221.74,288.37L222.36,287.46L223.59,280.73L224.2,276.56L226.05,266.42L226.67,265.84L227.28,265.42L227.9,267.01L229.75,270.36L230.36,270.11L232.21,269.14L232.83,270.45L235.91,278.31L236.52,278.91L237.75,279.3L238.37,278.22L239.6,277.61L240.22,279.06L242.07,288.92L242.68,294.88L243.91,303.1L244.53,304L245.14,303.28L245.76,300.48L248.22,281.73L248.84,276.15L250.07,270.16L250.69,270.92L254.38,277.67L255,277.74L256.23,274.6L256.85,271.16L261.16,231.63L261.78,224.22L263.62,218.33L264.24,217.58L266.09,217.31L266.7,216.36L271.01,202.58L271.63,202.3L273.48,200.89L274.09,199.98L275.33,194.67L275.94,190.7L277.79,203.53L278.41,210.65L280.87,238.48L281.49,242L283.33,249.25L283.95,250.08L284.57,251.38L285.18,255.03L287.64,271.06L288.26,269.13L288.88,255.62L289.49,177.11L291.96,138.91L292.57,134.85L295.04,127.91L295.65,126.46L299.35,117.1L299.96,116.5L302.43,114.95L303.04,115.07L304.28,114.86L304.89,114L306.12,112.57L306.74,110.39L309.82,99.27L310.43,98.36L313.51,94.07L314.13,92.49L315.36,86.37L315.98,79.01L317.21,59.67L317.83,55.45L319.67,46.37L320.29,44.53L320.91,44.06L321.52,42.04L322.75,39.41L323.37,39.65L325.22,39.88L325.83,40.06L330.76,38.84L331.38,39.09L335.07,40.21L335.69,40.28L340.62,38.25L341.23,38.49L343.08,38.61L343.7,38.37L346.16,37.45L346.78,37.62L348.01,38.37L348.62,39.11L353.55,46.42L354.17,46.9L359.09,50.36L359.71,55.27L363.41,75.63L364.02,76.02L365.87,73.68L366.49,73.46L370.18,73L370.8,72.64L376.34,67.18L376.96,67.12L381.88,68.03L382.5,67.49L384.35,65.89L384.96,66.54L386.81,72.6L387.43,76.26L389.28,78.69L389.89,78.05L391.74,75.85L392.36,78.01L396.05,74.63L396.67,74.36L398.51,73.16L399.13,72.03L403.44,61.65L404.06,60.8L405.29,60.54L405.91,61.17L407.75,65.69L408.37,68.1L411.45,76.21L412.07,76.64L415.14,76.5L415.76,76.87L416.99,76.74L417.61,76.87L421.3,77.19L421.92,76.85L424.38,76.04L425,76.52L426.85,78.42L427.46,78.67L429.31,77.88L429.93,77.26L433.62,73.61L434.24,73.35L436.09,73.82L436.7,74.25L439.78,76.5L440.4,76.31L441.63,75.55L442.25,74.46L444.09,72.57L444.71,72.65L445.94,73.62L446.56,75.48L448.41,85.74L449.02,91.17L451.49,101.94L452.1,103.09L453.33,103.35L453.95,102.6L455.8,100.07L456.41,100.34L457.64,106.13L458.26,111.8L460.11,122.91L460.72,123.81L462.57,121.06L463.19,121.16L464.42,123.18L465.04,125.06L469.96,140.48L470.58,141.46L472.43,143.31L473.04,144.59L474.28,151.28L474.89,157.02L480.43,211.83L481.05,215.15L481.67,217.02L482.28,226.88L485.98,222.27L486.59,221.76L487.21,221.18L487.83,221.64L488.44,222.44L489.06,224.97L490.29,229.16L490.91,233.31L494.6,269.62L495.22,267.15L497.07,252.97L497.68,243.19L498.91,222.87L499.53,222.29L500.14,221.81L500.76,222.35L507.54,237.47L508.15,239.11L509.38,240.68L510,240.08" style="vector-effect: non-scaling-stroke; fill: none; stroke: rgb(239, 85, 59); stroke-opacity: 1; stroke-width: 2px; opacity: 1;"/></g><g class="points"/><g class="text"/></g></g></g><g class="overplot"/><path class="xlines-above crisp" d="M0,0" style="fill: none;"/><path class="ylines-above crisp" d="M0,0" style="fill: none;"/><g class="overlines-above"/><g class="xaxislayer-above"><g class="xtick"><text text-anchor="middle" x="0" y="433" transform="translate(174.86,0)" style="font-family: 'Open Sans', verdana, arial, sans-serif; font-size: 12px; fill: rgb(42, 63, 95); fill-opacity: 1; white-space: pre;">Jan 2018</text></g><g class="xtick"><text text-anchor="middle" x="0" y="433" transform="translate(286.34000000000003,0)" style="font-family: 'Open Sans', verdana, arial, sans-serif; font-size: 12px; fill: rgb(42, 63, 95); fill-opacity: 1; white-space: pre;">Jul 2018</text></g><g class="xtick"><text text-anchor="middle" x="0" y="433" transform="translate(399.67,0)" style="font-family: 'Open Sans', verdana, arial, sans-serif; font-size: 12px; fill: rgb(42, 63, 95); fill-opacity: 1; white-space: pre;">Jan 2019</text></g><g class="xtick"><text text-anchor="middle" x="0" y="433" transform="translate(511.16,0)" style="font-family: 'Open Sans', verdana, arial, sans-serif; font-size: 12px; fill: rgb(42, 63, 95); fill-opacity: 1; white-space: pre;">Jul 2019</text></g></g><g class="yaxislayer-above"><g class="ytick"><text text-anchor="end" x="79" y="4.199999999999999" transform="translate(0,403.86)" style="font-family: 'Open Sans', verdana, arial, sans-serif; font-size: 12px; fill: rgb(42, 63, 95); fill-opacity: 1; white-space: pre;">0</text></g><g class="ytick"><text text-anchor="end" x="79" y="4.199999999999999" transform="translate(0,346.28999999999996)" style="font-family: 'Open Sans', verdana, arial, sans-serif; font-size: 12px; fill: rgb(42, 63, 95); fill-opacity: 1; white-space: pre;">0.2</text></g><g class="ytick"><text text-anchor="end" x="79" y="4.199999999999999" transform="translate(0,288.72)" style="font-family: 'Open Sans', verdana, arial, sans-serif; font-size: 12px; fill: rgb(42, 63, 95); fill-opacity: 1; white-space: pre;">0.4</text></g><g class="ytick"><text text-anchor="end" x="79" y="4.199999999999999" transform="translate(0,231.14)" style="font-family: 'Open Sans', verdana, arial, sans-serif; font-size: 12px; fill: rgb(42, 63, 95); fill-opacity: 1; white-space: pre;">0.6</text></g><g class="ytick"><text text-anchor="end" x="79" y="4.199999999999999" transform="translate(0,173.57)" style="font-family: 'Open Sans', verdana, arial, sans-serif; font-size: 12px; fill: rgb(42, 63, 95); fill-opacity: 1; white-space: pre;">0.8</text></g><g class="ytick"><text text-anchor="end" x="79" y="4.199999999999999" transform="translate(0,116)" style="font-family: 'Open Sans', verdana, arial, sans-serif; font-size: 12px; fill: rgb(42, 63, 95); fill-opacity: 1; white-space: pre;">1</text></g></g><g class="overaxes-above"/></g></g><g class="polarlayer"/><g class="ternarylayer"/><g class="geolayer"/><g class="funnelarealayer"/><g class="pielayer"/><g class="treemaplayer"/><g class="sunburstlayer"/><g class="glimages"/><defs id="topdefs-d99813"><g class="clips"/><clipPath id="legendd99813"><rect width="88" height="64" x="0" y="0"/></clipPath></defs><g class="layer-above"><g class="imagelayer"/><g class="shapelayer"/></g><g class="infolayer"><g class="legend" pointer-events="all" transform="translate(600.2,100)"><rect class="bg" shape-rendering="crispEdges" width="88" height="64" x="0" y="0" style="stroke: rgb(68, 68, 68); stroke-opacity: 1; fill: rgb(255, 255, 255); fill-opacity: 1; stroke-width: 0px;"/><g class="scrollbox" transform="" clip-path="url('#legendd99813')"><text class="legendtitletext" text-anchor="start" x="2" y="15.600000000000001" style="font-family: 'Open Sans', verdana, arial, sans-serif; font-size: 12px; fill: rgb(42, 63, 95); fill-opacity: 1; white-space: pre;">variable</text><g class="groups" transform=""><g class="traces" transform="translate(0,30.1)" style="opacity: 1;"><text class="legendtext" text-anchor="start" x="40" y="4.680000000000001" style="font-family: 'Open Sans', verdana, arial, sans-serif; font-size: 12px; fill: rgb(42, 63, 95); fill-opacity: 1; white-space: pre;">y_train</text><g class="layers" style="opacity: 1;"><g class="legendfill"/><g class="legendlines"><path class="js-line" d="M5,0h30" style="fill: none; stroke: rgb(99, 110, 250); stroke-opacity: 1; stroke-width: 2px;"/></g><g class="legendsymbols"><g class="legendpoints"/></g></g><rect class="legendtoggle" x="0" y="-9.5" width="82.6875" height="19" style="fill: rgb(0, 0, 0); fill-opacity: 0;"/></g></g><g class="groups" transform=""><g class="traces" transform="translate(0,49.1)" style="opacity: 1;"><text class="legendtext" text-anchor="start" x="40" y="4.680000000000001" style="font-family: 'Open Sans', verdana, arial, sans-serif; font-size: 12px; fill: rgb(42, 63, 95); fill-opacity: 1; white-space: pre;">r2</text><g class="layers" style="opacity: 1;"><g class="legendfill"/><g class="legendlines"><path class="js-line" d="M5,0h30" style="fill: none; stroke: rgb(239, 85, 59); stroke-opacity: 1; stroke-width: 2px;"/></g><g class="legendsymbols"><g class="legendpoints"/></g></g><rect class="legendtoggle" x="0" y="-9.5" width="82.6875" height="19" style="fill: rgb(0, 0, 0); fill-opacity: 0;"/></g></g></g><rect class="scrollbar" rx="20" ry="3" width="0" height="0" x="0" y="0" style="fill: rgb(128, 139, 164); fill-opacity: 1;"/></g><g class="g-gtitle"><text class="gtitle" x="35" y="50" text-anchor="start" dy="0em" style="font-family: 'Open Sans', verdana, arial, sans-serif; font-size: 17px; fill: rgb(42, 63, 95); opacity: 1; font-weight: normal; white-space: pre;">R2 of the sequential fitting</text></g><g class="g-xtitle"><text class="xtitle" x="335" y="460.3" text-anchor="middle" style="font-family: 'Open Sans', verdana, arial, sans-serif; font-size: 14px; fill: rgb(42, 63, 95); opacity: 1; font-weight: normal; white-space: pre;">date</text></g><g class="g-ytitle"><text class="ytitle" transform="rotate(-90,34.575,260)" x="34.575" y="260" text-anchor="middle" style="font-family: 'Open Sans', verdana, arial, sans-serif; font-size: 14px; fill: rgb(42, 63, 95); opacity: 1; font-weight: normal; white-space: pre;">value</text></g></g></svg>