<svg class="main-svg" xmlns="http://www.w3.org/2000/svg" xmlns:xlink="http://www.w3.org/1999/xlink" width="700" height="500" style="" viewBox="0 0 700 500"><rect x="0" y="0" width="700" height="500" style="fill: rgb(255, 255, 255); fill-opacity: 1;"/><defs id="defs-24a9d2"><g class="clips"><clipPath id="clip24a9d2xyplot" class="plotclip"><rect width="520" height="320"/></clipPath><clipPath class="axesclip" id="clip24a9d2x"><rect x="80" y="0" width="520" height="500"/></clipPath><clipPath class="axesclip" id="clip24a9d2y"><rect x="0" y="100" width="700" height="320"/></clipPath><clipPath class="axesclip" id="clip24a9d2xy"><rect x="80" y="100" width="520" height="320"/></clipPath></g><g class="gradients"/></defs><g class="bglayer"><rect class="bg" x="80" y="100" width="520" height="320" style="fill: rgb(229, 236, 246); fill-opacity: 1; stroke-width: 0;"/></g><g class="layer-below"><g class="imagelayer"/><g class="shapelayer"/></g><g class="cartesianlayer"><g class="subplot xy"><g class="layer-subplot"><g class="shapelayer"/><g class="imagelayer"/></g><g class="gridlayer"><g class="x"><path class="xgrid crisp" transform="translate(176.70999999999998,0)" d="M0,100v320" style="stroke: rgb(255, 255, 255); stroke-opacity: 1; stroke-width: 1px;"/><path class="xgrid crisp" transform="translate(290.39,0)" d="M0,100v320" style="stroke: rgb(255, 255, 255); stroke-opacity: 1; stroke-width: 1px;"/><path class="xgrid crisp" transform="translate(405.94,0)" d="M0,100v320" style="stroke: rgb(255, 255, 255); stroke-opacity: 1; stroke-width: 1px;"/><path class="xgrid crisp" transform="translate(519.61,0)" d="M0,100v320" style="stroke: rgb(255, 255, 255); stroke-opacity: 1; stroke-width: 1px;"/></g><g class="y"><path class="ygrid crisp" transform="translate(0,401.5)" d="M80,0h520" style="stroke: rgb(255, 255, 255); stroke-opacity: 1; stroke-width: 1px;"/><path class="ygrid crisp" transform="translate(0,364.61)" d="M80,0h520" style="stroke: rgb(255, 255, 255); stroke-opacity: 1; stroke-width: 1px;"/><path class="ygrid crisp" transform="translate(0,327.72)" d="M80,0h520" style="stroke: rgb(255, 255, 255); stroke-opacity: 1; stroke-width: 1px;"/><path class="ygrid crisp" transform="translate(0,253.94)" d="M80,0h520" style="stroke: rgb(255, 255, 255); stroke-opacity: 1; stroke-width: 1px;"/><path class="ygrid crisp" transform="translate(0,217.05)" d="M80,0h520" style="stroke: rgb(255, 255, 255); stroke-opacity: 1; stroke-width: 1px;"/><path class="ygrid crisp" transform="translate(0,180.16)" d="M80,0h520" style="stroke: rgb(255, 255, 255); stroke-opacity: 1; stroke-width: 1px;"/><path class="ygrid crisp" transform="translate(0,143.27)" d="M80,0h520" style="stroke: rgb(255, 255, 255); stroke-opacity: 1; stroke-width: 1px;"/><path class="ygrid crisp" transform="translate(0,106.38)" d="M80,0h520" style="stroke: rgb(255, 255, 255); stroke-opacity: 1; stroke-width: 1px;"/></g></g><g class="zerolinelayer"><path class="yzl zl crisp" transform="translate(0,290.83000000000004)" d="M80,0h520" style="stroke: rgb(255, 255, 255); stroke-opacity: 1; stroke-width: 2px;"/></g><path class="xlines-below"/><path class="ylines-below"/><g class="overlines-below"/><g class="xaxislayer-below"/><g class="yaxislayer-below"/><g class="overaxes-below"/><g class="plot" transform="translate(80,100)" clip-path="url('#clip24a9d2xyplot')"><g class="scatterlayer mlayer"><g class="trace scatter trace52e7d4" style="stroke-miterlimit: 2; opacity: 1;"><g class="fills"/><g class="errorbars"/><g class="lines"><path class="js-line" d="M0,190.46L322.17,189.78L322.8,189.69L337.87,189.48L338.5,189.46L417,188.88L417.63,188.92L433.96,188.69L434.59,188.68L460.97,189.01L461.59,189.01L483.57,189.38L484.2,189.41L520,190.32" style="vector-effect: non-scaling-stroke; fill: none; stroke: rgb(99, 110, 250); stroke-opacity: 1; stroke-width: 2px; opacity: 1;"/></g><g class="points"/><g class="text"/></g><g class="trace scatter trace657376" style="stroke-miterlimit: 2; opacity: 1;"><g class="fills"/><g class="errorbars"/><g class="lines"><path class="js-line" d="M0,189.86L520,190.05" style="vector-effect: non-scaling-stroke; fill: none; stroke: rgb(239, 85, 59); stroke-opacity: 1; stroke-width: 2px; opacity: 1;"/></g><g class="points"/><g class="text"/></g><g class="trace scatter trace982233" style="stroke-miterlimit: 2; opacity: 1;"><g class="fills"/><g class="errorbars"/><g class="lines"><path class="js-line" d="M0,188.13L75.36,187.61L75.99,186.55L77.87,183.66L78.5,183.47L82.27,183.78L82.9,183.93L84.78,185.37L85.41,186.06L88.55,189.01L89.18,189.04L95.46,188.99L96.09,189L104.25,189.64L104.88,190.15L106.14,192.65L106.76,194.53L108.02,195.63L108.65,195.48L113.67,191.9L114.3,191.8L116.18,190.64L116.81,189.78L121.21,184.34L121.84,184.27L129.37,184.7L130,185.2L132.51,187.4L133.14,187.32L134.4,185.75L135.02,184.8L138.79,178.73L139.42,178.48L143.19,176.86L143.82,175.65L145.7,170.1L146.33,167.86L147.58,165.36L148.21,167.67L152.61,180.5L153.24,181.19L155.12,181.64L155.75,181.63L162.66,181.16L163.29,180.9L168.31,177.89L168.94,177.92L174.59,178.58L175.22,180.03L177.1,183.87L177.73,184.69L178.99,186.42L179.61,185.3L181.5,175.96L182.13,173.75L184.01,169.86L184.64,168.93L188.41,166.64L189.03,166.43L191.55,166.93L192.17,165.52L194.06,160.8L194.69,158.2L195.31,155.83L195.94,160.11L197.83,184.57L198.45,186.32L199.71,187.33L200.34,187.54L202.85,187.7L203.48,187.71L207.87,187.93L208.5,187.37L209.76,184.53L210.39,181.62L211.64,172.32L212.27,157.82L214.15,152.09L214.78,152.47L216.67,154.09L217.29,154.18L218.55,154.89L219.18,155.49L221.69,154.97L222.32,154.63L223.57,154.59L224.2,160.04L226.09,178.24L226.71,179.57L227.97,184.4L228.6,187.46L236.14,238.45L236.76,240.67L238.02,235.53L238.65,230.63L240.53,223.4L241.16,222.72L242.42,222.01L243.04,222.05L244.93,222.83L245.56,224.02L246.81,227.16L247.44,234.1L249.32,253.97L249.95,256.28L250.58,257.25L251.21,256.03L251.84,256.71L252.46,254.42L253.72,252.33L254.35,252.29L261.26,252.5L261.88,253.27L265.65,260.75L266.28,263.39L268.16,271.15L268.79,271.15L270.68,270.86L271.3,271.03L271.93,272.64L272.56,278.6L276.33,304L276.96,303.71L278.21,300.02L278.84,296.33L285.75,233.75L286.38,224.5L288.26,206.16L288.89,203.45L293.29,196.69L293.91,194.31L294.54,187.44L295.17,107.87L297.68,133.01L298.31,135.17L300.19,135.64L300.82,135.61L304.59,134.48L305.22,133.11L308.36,127.88L308.99,127.65L311.5,127.89L312.13,128.87L315.89,142.77L316.52,143.37L318.41,143.45L319.03,142.82L320.29,140.83L320.92,138.82L321.55,135.93L322.17,129.15L322.8,91.87L323.43,92.54L324.06,93.56L329.08,104.06L329.71,103.86L331.59,103.91L332.22,103.77L335.36,103.68L335.99,103.69L337.25,103.2L337.87,102.59L341.01,99.67L341.64,99.66L342.9,100L343.53,101.32L347.92,123.73L348.55,124.39L353.57,125.56L354.2,125.59L355.46,126.9L356.09,128.3L359.23,135.09L359.86,135.58L361.74,136.11L362.37,136.12L364.25,137.62L364.88,138.78L366.14,143.7L366.76,148.75L368.02,151.03L368.65,150.77L371.16,149.32L371.79,150.01L375.56,150.67L376.18,151.31L379.32,152.55L379.95,152.87L385.6,155.62L386.23,156.82L388.12,164.11L388.74,167.09L391.88,180.22L392.51,180.39L394.4,174.67L395.02,171.07L396.91,170.39L397.54,170.4L401.3,170.84L401.93,170.87L405.7,170.09L406.33,169.43L408.21,163.94L408.84,161.78L410.1,158.32L410.72,157.52L411.98,157.18L412.61,157.28L414.49,156.74L415.12,156.41L416.38,156.46L417,157.12L418.26,159.92L418.89,162.62L422.66,187.15L423.29,196.54L425.17,208.7L425.8,211.45L427.05,212.93L427.68,212.85L428.94,210.31L429.57,208.55L430.82,207.55L431.45,207.68L433.33,208.56L433.96,210.06L436.47,213.12L437.1,213.28L449.03,214.11L449.66,214.37L450.29,214.69L450.92,216.01L453.43,221.22L454.06,222.4L456.57,234.22L457.2,242.72L459.08,262.23L459.71,264.13L461.59,265.35L462.22,265.22L464.11,265.6L464.73,266.18L465.36,266.46L465.99,265.66L467.25,263.58L467.87,263.74L469.13,264.81L469.76,264.4L471.01,257.81L471.64,256.88L475.41,256.88L476.04,256.12L478.55,249.95L479.18,249.63L480.43,245.91L481.06,241.72L482.95,215.81L483.57,204.09L486.71,161.17L487.34,155.98L489.86,127.55L490.48,118.09L491.11,102.81L491.74,19.02L494.88,16.39L495.51,17.37L499.28,28.19L499.9,28.55L503.04,35.26L503.67,36.25L504.3,38.32L504.93,43.01L506.18,48.6L506.81,45.55L507.44,38.48L508.07,18.77L509.95,16L510.58,16.16L511.21,16.7L511.84,18.47L513.09,27.69L513.72,32.88L516.86,56.87L517.49,60.74L518.74,66.53L519.37,65.65L520,60.61" style="vector-effect: non-scaling-stroke; fill: none; stroke: rgb(0, 204, 150); stroke-opacity: 1; stroke-width: 2px; opacity: 1;"/></g><g class="points"/><g class="text"/></g><g class="trace scatter tracea919d9" style="stroke-miterlimit: 2; opacity: 1;"><g class="fills"/><g class="errorbars"/><g class="lines"><path class="js-line" d="M0,190.39L294.54,190.93L295.17,190.98L355.46,191.21L356.09,191.19L391.88,190.78L392.51,190.77L426.43,190.57L427.05,190.56L520,190.72" style="vector-effect: non-scaling-stroke; fill: none; stroke: rgb(171, 99, 250); stroke-opacity: 1; stroke-width: 2px; opacity: 1;"/></g><g class="points"/><g class="text"/></g></g></g><g class="overplot"/><path class="xlines-above crisp" d="M0,0" style="fill: none;"/><path class="ylines-above crisp" d="M0,0" style="fill: none;"/><g class="overlines-above"/><g class="xaxislayer-above"><g class="xtick"><text text-anchor="middle" x="0" y="433" transform="translate(176.70999999999998,0)" style="font-family: 'Open Sans', verdana, arial, sans-serif; font-size: 12px; fill: rgb(42, 63, 95); fill-opacity: 1; white-space: pre;">Jan 2018</text></g><g class="xtick"><text text-anchor="middle" x="0" y="433" transform="translate(290.39,0)" style="font-family: 'Open Sans', verdana, arial, sans-serif; font-size: 12px; fill: rgb(42, 63, 95); fill-opacity: 1; white-space: pre;">Jul 2018</text></g><g class="xtick"><text text-anchor="middle" x="0" y="433" transform="translate(405.94,0)" style="font-family: 'Open Sans', verdana, arial, sans-serif; font-size: 12px; fill: rgb(42, 63, 95); fill-opacity: 1; white-space: pre;">Jan 2019</text></g><g class="xtick"><text text-anchor="middle" x="0" y="433" transform="translate(519.61,0)" style="font-family: 'Open Sans', verdana, arial, sans-serif; font-size: 12px; fill: rgb(42, 63, 95); fill-opacity: 1; white-space: pre;">Jul 2019</text></g></g><g class="yaxislayer-above"><g class="ytick"><text text-anchor="end" x="79" y="4.199999999999999" transform="translate(0,401.5)" style="font-family: 'Open Sans', verdana, arial, sans-serif; font-size: 12px; fill: rgb(42, 63, 95); fill-opacity: 1; white-space: pre;">−15</text></g><g class="ytick"><text text-anchor="end" x="79" y="4.199999999999999" transform="translate(0,364.61)" style="font-family: 'Open Sans', verdana, arial, sans-serif; font-size: 12px; fill: rgb(42, 63, 95); fill-opacity: 1; white-space: pre;">−10</text></g><g class="ytick"><text text-anchor="end" x="79" y="4.199999999999999" transform="translate(0,327.72)" style="font-family: 'Open Sans', verdana, arial, sans-serif; font-size: 12px; fill: rgb(42, 63, 95); fill-opacity: 1; white-space: pre;">−5</text></g><g class="ytick"><text text-anchor="end" x="79" y="4.199999999999999" transform="translate(0,290.83000000000004)" style="font-family: 'Open Sans', verdana, arial, sans-serif; font-size: 12px; fill: rgb(42, 63, 95); fill-opacity: 1; white-space: pre;">0</text></g><g class="ytick"><text text-anchor="end" x="79" y="4.199999999999999" transform="translate(0,253.94)" style="font-family: 'Open Sans', verdana, arial, sans-serif; font-size: 12px; fill: rgb(42, 63, 95); fill-opacity: 1; white-space: pre;">5</text></g><g class="ytick"><text text-anchor="end" x="79" y="4.199999999999999" transform="translate(0,217.05)" style="font-family: 'Open Sans', verdana, arial, sans-serif; font-size: 12px; fill: rgb(42, 63, 95); fill-opacity: 1; white-space: pre;">10</text></g><g class="ytick"><text text-anchor="end" x="79" y="4.199999999999999" transform="translate(0,180.16)" style="font-family: 'Open Sans', verdana, arial, sans-serif; font-size: 12px; fill: rgb(42, 63, 95); fill-opacity: 1; white-space: pre;">15</text></g><g class="ytick"><text text-anchor="end" x="79" y="4.199999999999999" transform="translate(0,143.27)" style="font-family: 'Open Sans', verdana, arial, sans-serif; font-size: 12px; fill: rgb(42, 63, 95); fill-opacity: 1; white-space: pre;">20</text></g><g class="ytick"><text text-anchor="end" x="79" y="4.199999999999999" transform="translate(0,106.38)" style="font-family: 'Open Sans', verdana, arial, sans-serif; font-size: 12px; fill: rgb(42, 63, 95); fill-opacity: 1; white-space: pre;">25</text></g></g><g class="overaxes-above"/></g></g><g class="polarlayer"/><g class="ternarylayer"/><g class="geolayer"/><g class="funnelarealayer"/><g class="pielayer"/><g class="treemaplayer"/><g class="sunburstlayer"/><g class="glimages"/><defs id="topdefs-24a9d2"><g class="clips"/><clipPath id="legend24a9d2"><rect width="78" height="102" x="0" y="0"/></clipPath></defs><g class="layer-above"><g class="imagelayer"/><g class="shapelayer"/></g><g class="infolayer"><g class="legend" pointer-events="all" transform="translate(610.4,100)"><rect class="bg" shape-rendering="crispEdges" width="78" height="102" x="0" y="0" style="stroke: rgb(68, 68, 68); stroke-opacity: 1; fill: rgb(255, 255, 255); fill-opacity: 1; stroke-width: 0px;"/><g class="scrollbox" transform="" clip-path="url('#legend24a9d2')"><text class="legendtitletext" text-anchor="start" x="2" y="15.600000000000001" style="font-family: 'Open Sans', verdana, arial, sans-serif; font-size: 12px; fill: rgb(42, 63, 95); fill-opacity: 1; white-space: pre;">variable</text><g class="groups" transform=""><g class="traces" transform="translate(0,30.1)" style="opacity: 1;"><text class="legendtext" text-anchor="start" x="40" y="4.680000000000001" style="font-family: 'Open Sans', verdana, arial, sans-serif; font-size: 12px; fill: rgb(42, 63, 95); fill-opacity: 1; white-space: pre;">sin_a</text><g class="layers" style="opacity: 1;"><g class="legendfill"/><g class="legendlines"><path class="js-line" d="M5,0h30" style="fill: none; stroke: rgb(99, 110, 250); stroke-opacity: 1; stroke-width: 2px;"/></g><g class="legendsymbols"><g class="legendpoints"/></g></g><rect class="legendtoggle" x="0" y="-9.5" width="72.25" height="19" style="fill: rgb(0, 0, 0); fill-opacity: 0;"/></g></g><g class="groups" transform=""><g class="traces" transform="translate(0,49.1)" style="opacity: 1;"><text class="legendtext" text-anchor="start" x="40" y="4.680000000000001" style="font-family: 'Open Sans', verdana, arial, sans-serif; font-size: 12px; fill: rgb(42, 63, 95); fill-opacity: 1; white-space: pre;">sin_b</text><g class="layers" style="opacity: 1;"><g class="legendfill"/><g class="legendlines"><path class="js-line" d="M5,0h30" style="fill: none; stroke: rgb(239, 85, 59); stroke-opacity: 1; stroke-width: 2px;"/></g><g class="legendsymbols"><g class="legendpoints"/></g></g><rect class="legendtoggle" x="0" y="-9.5" width="72.25" height="19" style="fill: rgb(0, 0, 0); fill-opacity: 0;"/></g></g><g class="groups" transform=""><g class="traces" transform="translate(0,68.1)" style="opacity: 1;"><text class="legendtext" text-anchor="start" x="40" y="4.680000000000001" style="font-family: 'Open Sans', verdana, arial, sans-serif; font-size: 12px; fill: rgb(42, 63, 95); fill-opacity: 1; white-space: pre;">sin_c</text><g class="layers" style="opacity: 1;"><g class="legendfill"/><g class="legendlines"><path class="js-line" d="M5,0h30" style="fill: none; stroke: rgb(0, 204, 150); stroke-opacity: 1; stroke-width: 2px;"/></g><g class="legendsymbols"><g class="legendpoints"/></g></g><rect class="legendtoggle" x="0" y="-9.5" width="72.25" height="19" style="fill: rgb(0, 0, 0); fill-opacity: 0;"/></g></g><g class="groups" transform=""><g class="traces" transform="translate(0,87.1)" style="opacity: 1;"><text class="legendtext" text-anchor="start" x="40" y="4.680000000000001" style="font-family: 'Open Sans', verdana, arial, sans-serif; font-size: 12px; fill: rgb(42, 63, 95); fill-opacity: 1; white-space: pre;">sin_d</text><g class="layers" style="opacity: 1;"><g class="legendfill"/><g class="legendlines"><path class="js-line" d="M5,0h30" style="fill: none; stroke: rgb(171, 99, 250); stroke-opacity: 1; stroke-width: 2px;"/></g><g class="legendsymbols"><g class="legendpoints"/></g></g><rect class="legendtoggle" x="0" y="-9.5" width="72.25" height="19" style="fill: rgb(0, 0, 0); fill-opacity: 0;"/></g></g></g><rect class="scrollbar" rx="20" ry="3" width="0" height="0" x="0" y="0" style="fill: rgb(128, 139, 164); fill-opacity: 1;"/></g><g class="g-gtitle"><text class="gtitle" x="35" y="50" text-anchor="start" dy="0em" style="font-family: 'Open Sans', verdana, arial, sans-serif; font-size: 17px; fill: rgb(42, 63, 95); opacity: 1; font-weight: normal; white-space: pre;">Sequential parameters of the sinusoid</text></g><g class="g-xtitle"><text class="xtitle" x="340" y="460.3" text-anchor="middle" style="font-family: 'Open Sans', verdana, arial, sans-serif; font-size: 14px; fill: rgb(42, 63, 95); opacity: 1; font-weight: normal; white-space: pre;">date</text></g><g class="g-ytitle"><text class="ytitle" transform="rotate(-90,29.121875000000003,260)" x="29.121875000000003" y="260" text-anchor="middle" style="font-family: 'Open Sans', verdana, arial, sans-serif; font-size: 14px; fill: rgb(42, 63, 95); opacity: 1; font-weight: normal; white-space: pre;">value</text></g></g></svg>